<svg width="450" height="300" viewBox="0 0 450 300" fill="none" xmlns="http://www.w3.org/2000/svg">
<mask id="mask0_2882_9666" style="mask-type:luminance" maskUnits="userSpaceOnUse" x="105" y="30" width="240" height="240">
<path d="M345 30H105V270H345V30Z" fill="white"/>
</mask>
<g mask="url(#mask0_2882_9666)">
<mask id="mask1_2882_9666" style="mask-type:luminance" maskUnits="userSpaceOnUse" x="119" y="30" width="212" height="240">
<path d="M330.681 30H119.4V270H330.681V30Z" fill="white"/>
</mask>
<g mask="url(#mask1_2882_9666)">
<path d="M119.4 96.0923V203.912C119.4 208.264 121.724 212.284 125.495 214.459L218.946 268.371C222.717 270.548 227.365 270.548 231.136 268.371L324.587 214.459C328.358 212.284 330.681 208.264 330.681 203.912V96.0923C330.681 91.7396 328.358 87.7199 324.587 85.5435L231.136 31.6322C227.365 29.4559 222.717 29.4559 218.946 31.6322L125.495 85.5435C121.724 87.7153 119.4 91.7396 119.4 96.0923Z" fill="url(#paint0_linear_2882_9666)"/>
<g filter="url(#filter0_d_2882_9666)">
<path d="M131.995 103.361V196.643C131.995 200.996 134.32 205.016 138.089 207.192L218.942 253.835C222.712 256.012 227.36 256.012 231.13 253.835L311.987 207.192C315.757 205.016 318.081 200.996 318.081 196.643V103.361C318.081 99.0078 315.757 94.9872 311.987 92.8118L231.135 46.1678C227.364 43.9916 222.715 43.9916 218.945 46.1678L138.094 92.8071C134.323 94.9844 131.999 99.0032 131.999 103.356L131.995 103.361Z" fill="url(#paint1_linear_2882_9666)"/>
</g>
<path d="M119.4 187.232H330.681V118.378H119.4V187.232Z" fill="url(#paint2_linear_2882_9666)"/>
<path d="M161.01 172.383C157.516 172.383 154.493 171.774 151.933 170.56C149.373 169.343 147.256 167.731 145.582 165.721C143.903 163.711 142.661 161.55 141.852 159.24C141.039 156.93 140.634 154.701 140.634 152.549V151.384C140.634 149.021 141.056 146.67 141.905 144.324C142.75 141.981 144.03 139.852 145.74 137.949C147.45 136.045 149.576 134.522 152.12 133.372C154.659 132.228 157.625 131.656 161.01 131.656C164.394 131.656 167.368 132.228 169.928 133.372C172.484 134.517 174.621 136.045 176.332 137.949C178.042 139.852 179.323 141.976 180.167 144.324C181.012 146.67 181.439 149.021 181.439 151.384V152.549C181.439 154.701 181.024 156.93 180.196 159.24C179.367 161.55 178.116 163.711 176.437 165.721C174.764 167.731 172.642 169.343 170.086 170.56C167.527 171.779 164.503 172.383 161.01 172.383ZM161.01 165.405C162.985 165.405 164.769 165.051 166.357 164.348C167.946 163.643 169.295 162.663 170.403 161.413C171.517 160.163 172.362 158.733 172.943 157.129C173.524 155.525 173.816 153.824 173.816 152.025C173.816 150.121 173.516 148.359 172.918 146.735C172.317 145.115 171.464 143.695 170.351 142.476C169.238 141.258 167.897 140.316 166.328 139.646C164.76 138.977 162.985 138.643 161.01 138.643C159.035 138.643 157.305 138.98 155.716 139.646C154.127 140.316 152.778 141.258 151.669 142.476C150.555 143.695 149.71 145.112 149.129 146.735C148.548 148.359 148.255 150.121 148.255 152.025C148.255 153.824 148.548 155.525 149.129 157.129C149.71 158.733 150.56 160.163 151.669 161.413C152.782 162.663 154.131 163.643 155.716 164.348C157.305 165.055 159.068 165.405 161.01 165.405Z" fill="white"/>
<path d="M201.552 172.383C198.164 172.383 195.291 171.836 192.926 170.743C190.561 169.651 188.773 168.145 187.555 166.22C186.336 164.299 185.73 162.124 185.73 159.688H193.089C193.089 160.71 193.369 161.705 193.935 162.676C194.499 163.646 195.405 164.43 196.66 165.031C197.912 165.631 199.545 165.928 201.557 165.928C203.425 165.928 204.97 165.663 206.188 165.136C207.408 164.608 208.322 163.91 208.939 163.05C209.557 162.185 209.866 161.206 209.866 160.114C209.866 158.774 209.285 157.69 208.118 156.862C206.953 156.033 205.135 155.513 202.666 155.302L199.277 154.985C195.572 154.669 192.617 153.515 190.412 151.522C188.206 149.533 187.104 146.894 187.104 143.617C187.104 141.148 187.685 139.025 188.851 137.242C190.017 135.465 191.646 134.087 193.748 133.117C195.848 132.147 198.306 131.664 201.13 131.664C203.954 131.664 206.59 132.175 208.723 133.199C210.857 134.221 212.499 135.659 213.644 137.511C214.79 139.361 215.363 141.539 215.363 144.043H208.005C208.005 143.02 207.757 142.062 207.265 141.16C206.769 140.263 206.014 139.529 204.989 138.964C203.965 138.399 202.678 138.119 201.126 138.119C199.574 138.119 198.415 138.375 197.449 138.887C196.477 139.398 195.747 140.068 195.251 140.896C194.755 141.725 194.511 142.635 194.511 143.621C194.511 144.818 194.95 145.87 195.835 146.768C196.718 147.665 198.111 148.189 200.017 148.327L203.352 148.643C206.14 148.855 208.565 149.435 210.63 150.39C212.693 151.34 214.306 152.631 215.472 154.251C216.639 155.875 217.221 157.827 217.221 160.122C217.221 162.554 216.586 164.697 215.314 166.549C214.042 168.4 212.234 169.838 209.89 170.862C207.541 171.884 204.765 172.396 201.557 172.396L201.552 172.383Z" fill="white"/>
<path d="M241.508 172.383C237.981 172.383 234.971 171.774 232.484 170.56C229.997 169.343 227.965 167.739 226.398 165.749C224.829 163.76 223.671 161.608 222.931 159.298C222.192 156.988 221.818 154.742 221.818 152.554V151.388C221.818 148.993 222.196 146.629 222.955 144.303C223.716 141.976 224.878 139.862 226.45 137.957C228.018 136.053 230.03 134.53 232.484 133.381C234.934 132.236 237.839 131.664 241.191 131.664C244.543 131.664 247.737 132.297 250.345 133.568C252.958 134.838 255.038 136.601 256.59 138.859C258.142 141.116 259.077 143.759 259.394 146.792H251.771C251.523 145.029 250.914 143.548 249.947 142.35C248.975 141.152 247.74 140.234 246.241 139.601C244.743 138.968 243.056 138.651 241.187 138.651C239.318 138.651 237.64 138.988 236.161 139.655C234.678 140.324 233.443 141.258 232.455 142.456C231.468 143.654 230.717 145.066 230.204 146.687C229.692 148.311 229.436 150.089 229.436 152.029C229.436 153.971 229.692 155.696 230.204 157.321C230.717 158.944 231.485 160.361 232.508 161.58C233.532 162.797 234.791 163.74 236.291 164.409C237.79 165.079 239.53 165.412 241.505 165.412C244.397 165.412 246.83 164.697 248.805 163.269C250.78 161.839 251.983 159.842 252.405 157.267H260.028C259.674 160.016 258.74 162.537 257.225 164.831C255.704 167.126 253.625 168.956 250.979 170.333C248.334 171.71 245.173 172.396 241.505 172.396L241.508 172.383Z" fill="white"/>
<path d="M266.383 171.377V132.772H273.741V171.377H266.383ZM272.681 139.118V132.772H289.774V139.118H272.681ZM272.681 154.932V148.586H288.823V154.932H272.681ZM272.681 171.381V165.034H290.196V171.381H272.681Z" fill="white"/>
<path d="M302.337 154.83C300.658 154.83 299.212 154.514 298.001 153.885C296.791 153.256 295.869 152.403 295.226 151.323C294.584 150.243 294.268 149.045 294.268 147.726H298.375C298.375 148.786 298.729 149.638 299.44 150.288C300.151 150.937 301.113 151.262 302.333 151.262C303.153 151.262 303.856 151.108 304.445 150.799C305.034 150.491 305.49 150.06 305.811 149.512C306.132 148.965 306.291 148.326 306.291 147.608C306.291 146.528 305.94 145.647 305.242 144.957C304.543 144.266 303.583 143.921 302.361 143.921C301.76 143.921 301.236 144.007 300.785 144.177C300.333 144.347 299.94 144.551 299.598 144.79L297.62 141.432L304.847 136.519L304.547 136.012H295.162V132.385H309.468V136.763L302.06 141.676L299.752 141.258C300.13 141.136 300.54 141.043 300.983 140.973C301.422 140.905 301.902 140.868 302.422 140.868C304.079 140.868 305.505 141.152 306.696 141.721C307.887 142.288 308.801 143.073 309.438 144.071C310.077 145.071 310.397 146.219 310.397 147.519V147.908C310.397 149.187 310.077 150.348 309.438 151.401C308.796 152.448 307.879 153.284 306.68 153.902C305.481 154.519 304.031 154.83 302.333 154.83H302.337Z" fill="white"/>
<path d="M220.632 221.728L220.924 223.295L224.151 222.337L220.632 221.728Z" fill="white"/>
<path d="M224.008 219.404L222.794 220.063L225.631 221.917L224.008 219.404Z" fill="white"/>
<path d="M226.342 221.48L229.234 220.818L228.429 219.844L226.342 221.48Z" fill="white"/>
<path d="M223.838 219.112C223.086 219.112 222.478 218.504 222.478 217.753C222.478 217.002 223.086 216.393 223.838 216.393C224.589 216.393 225.2 217.002 225.2 217.753C225.2 218.504 224.589 219.112 223.838 219.112ZM223.838 217.099C223.476 217.099 223.184 217.391 223.184 217.753C223.184 218.114 223.476 218.406 223.838 218.406C224.2 218.406 224.493 218.114 224.493 217.753C224.493 217.391 224.2 217.099 223.838 217.099Z" fill="white"/>
<path d="M220.485 230.234C219.734 230.234 219.125 229.625 219.125 228.874C219.125 228.122 219.734 227.514 220.485 227.514C221.238 227.514 221.846 228.122 221.846 228.874C221.846 229.625 221.238 230.234 220.485 230.234ZM220.485 228.22C220.124 228.22 219.832 228.513 219.832 228.874C219.832 229.235 220.124 229.528 220.485 229.528C220.847 229.528 221.139 229.235 221.139 228.874C221.139 228.513 220.847 228.22 220.485 228.22Z" fill="white"/>
<path d="M234.918 222.024C234.167 222.024 233.558 221.416 233.558 220.664C233.558 219.914 234.167 219.303 234.918 219.303C235.67 219.303 236.28 219.914 236.28 220.664C236.28 221.416 235.67 222.024 234.918 222.024ZM234.918 220.01C234.557 220.01 234.265 220.303 234.265 220.664C234.265 221.025 234.557 221.318 234.918 221.318C235.281 221.318 235.573 221.025 235.573 220.664C235.573 220.303 235.281 220.01 234.918 220.01Z" fill="white"/>
<path d="M227.279 239.129C226.528 239.129 225.918 238.521 225.918 237.769C225.918 237.019 226.528 236.408 227.279 236.408C228.031 236.408 228.64 237.019 228.64 237.769C228.64 238.521 228.031 239.129 227.279 239.129ZM227.279 237.116C226.918 237.116 226.625 237.408 226.625 237.769C226.625 238.13 226.918 238.423 227.279 238.423C227.64 238.423 227.933 238.13 227.933 237.769C227.933 237.408 227.64 237.116 227.279 237.116Z" fill="white"/>
<path d="M229.38 211.467C228.629 211.467 228.019 210.858 228.019 210.107C228.019 209.356 228.629 208.748 229.38 208.748C230.132 208.748 230.742 209.356 230.742 210.107C230.742 210.858 230.132 211.467 229.38 211.467ZM229.38 209.453C229.018 209.453 228.726 209.746 228.726 210.107C228.726 210.469 229.018 210.76 229.38 210.76C229.742 210.76 230.034 210.469 230.034 210.107C230.034 209.746 229.742 209.453 229.38 209.453Z" fill="white"/>
<path d="M228.429 211.081L224.639 216.656C224.768 216.754 224.882 216.871 224.972 217.005L228.819 211.345C228.673 211.281 228.543 211.191 228.429 211.081Z" fill="white"/>
<path d="M216.927 240.896C216.175 240.896 215.565 240.287 215.565 239.536C215.565 238.784 216.175 238.175 216.927 238.175C217.679 238.175 218.288 238.784 218.288 239.536C218.288 240.287 217.679 240.896 216.927 240.896ZM216.927 238.882C216.565 238.882 216.272 239.174 216.272 239.536C216.272 239.897 216.565 240.19 216.927 240.19C217.289 240.19 217.581 239.897 217.581 239.536C217.581 239.174 217.289 238.882 216.927 238.882Z" fill="white"/>
<path d="M218.23 239.153L226.097 238.447C226.015 238.309 225.958 238.155 225.934 237.988L217.998 238.698C218.104 238.833 218.181 238.987 218.23 239.153Z" fill="white"/>
<path d="M217.687 238.408L220.239 230.21C220.08 230.181 219.931 230.124 219.796 230.043L217.252 238.216C217.41 238.258 217.557 238.318 217.687 238.408Z" fill="white"/>
<path d="M224.191 216.441V215.646C224.191 213.222 225.865 211.184 228.116 210.619C228.05 210.461 228.014 210.29 228.014 210.111C228.014 210.043 228.023 209.978 228.031 209.912C225.426 210.522 223.479 212.86 223.479 215.646V216.441C223.594 216.409 223.712 216.393 223.834 216.393C223.956 216.393 224.073 216.409 224.186 216.441H224.191Z" fill="white"/>
<path d="M230.726 209.908C230.733 209.973 230.741 210.038 230.741 210.107C230.741 210.286 230.704 210.46 230.64 210.614C232.89 211.179 234.564 213.218 234.564 215.641V219.348C234.678 219.316 234.796 219.299 234.918 219.299C235.04 219.299 235.158 219.316 235.272 219.348V215.641C235.272 212.855 233.325 210.517 230.721 209.908H230.726Z" fill="white"/>
<path d="M226.089 238.427L224.923 239.592C223.944 240.571 222.64 241.111 221.255 241.111C220.124 241.111 219.056 240.75 218.17 240.088C218.068 240.311 217.914 240.497 217.719 240.64C218.734 241.404 219.963 241.817 221.258 241.817C222.831 241.817 224.313 241.204 225.426 240.091L226.59 238.931C226.382 238.809 226.211 238.634 226.098 238.423L226.089 238.427Z" fill="white"/>
<path d="M219.803 230.047C219.596 229.926 219.421 229.755 219.304 229.547L217.085 231.764C215.248 233.599 214.883 236.352 215.981 238.562C216.151 238.394 216.365 238.277 216.602 238.216C215.65 236.28 215.976 233.871 217.585 232.264L219.803 230.047Z" fill="white"/>
<path d="M234.564 221.976V225.446C234.564 226.299 234.361 227.116 233.971 227.855C233.748 226.718 233.191 225.67 232.358 224.834C232.171 224.647 231.964 224.469 231.749 224.301V215.641C231.749 214.338 230.689 213.274 229.38 213.274C228.071 213.274 227.011 214.333 227.011 215.641V218.558C227.011 218.752 227.17 218.91 227.365 218.91C227.56 218.91 227.718 218.752 227.718 218.558V215.641C227.718 214.728 228.462 213.981 229.38 213.981C230.299 213.981 231.042 214.724 231.042 215.641V223.843C230.172 223.36 229.202 223.105 228.193 223.105C228.035 223.105 227.881 223.113 227.723 223.124V222.82C227.723 222.625 227.564 222.467 227.368 222.467C227.174 222.467 227.016 222.625 227.016 222.82V225.443C227.016 226.145 227.324 226.807 227.869 227.257C228.287 227.607 228.811 227.802 229.356 227.806C229.36 227.81 229.363 227.813 229.367 227.818C229.681 228.131 229.856 228.549 229.856 228.992C229.856 229.435 229.684 229.852 229.367 230.165L228.93 230.604C227.605 230.49 226.39 229.876 225.5 228.87C224.675 227.94 224.215 226.746 224.2 225.504V222.962C224.2 222.767 224.041 222.609 223.843 222.609C223.643 222.609 223.488 222.767 223.488 222.962V225.371L221.164 227.692C221.372 227.81 221.546 227.984 221.664 228.192L223.549 226.308C223.699 227.319 224.115 228.28 224.752 229.089L219.58 234.257C219.133 234.704 218.889 235.297 218.889 235.931C218.889 236.563 219.137 237.156 219.58 237.604C220.026 238.05 220.62 238.297 221.255 238.297C221.887 238.297 222.481 238.05 222.928 237.604L229.311 231.224L229.863 230.673C230.311 230.226 230.558 229.633 230.558 229C230.558 228.366 230.311 227.774 229.863 227.327C229.815 227.279 229.762 227.229 229.705 227.185C229.29 226.836 228.762 226.641 228.218 226.636C227.897 226.324 227.714 225.897 227.714 225.451V223.843C228.949 223.733 230.18 224.063 231.184 224.777C231.424 224.947 231.651 225.138 231.854 225.341C232.801 226.287 233.342 227.546 233.37 228.886V229.004C233.37 230.388 232.829 231.692 231.851 232.67L227.93 236.588C228.141 236.706 228.315 236.876 228.438 237.079L232.351 233.17C233.464 232.057 234.077 230.58 234.077 229.004C234.077 229 234.077 228.992 234.077 228.987C234.853 227.96 235.267 226.742 235.267 225.451V221.98C235.154 222.011 235.036 222.028 234.914 222.028C234.792 222.028 234.674 222.011 234.561 221.98L234.564 221.976ZM222.425 237.104C222.111 237.417 221.692 237.591 221.25 237.591C220.807 237.591 220.389 237.421 220.075 237.104C219.763 236.791 219.592 236.374 219.592 235.931C219.592 235.487 219.763 235.069 220.075 234.757L225.22 229.617C226.068 230.46 227.129 231.021 228.295 231.237L222.425 237.104Z" fill="white"/>
<path d="M233.244 227.854C233.175 227.549 233.081 227.252 232.959 226.969L227.762 225.166C227.762 225.166 227.733 225.166 227.718 225.157V225.446C227.718 225.515 227.722 225.585 227.733 225.653L232.932 227.456L227.779 236.506C227.848 236.534 227.914 236.567 227.974 236.603C227.962 236.595 227.949 236.587 227.938 236.579L228.725 235.791L233.248 227.85L233.244 227.854Z" fill="white"/>
<path d="M229.365 227.826C229.365 227.826 229.357 227.817 229.352 227.813C229.283 227.813 229.214 227.809 229.149 227.802L227.499 229.969L224.2 223.81V224.813L227.012 230.055C227.26 230.184 227.52 230.291 227.788 230.375L229.559 228.052C229.503 227.975 229.442 227.898 229.372 227.829L229.365 227.826Z" fill="white"/>
<path d="M233.983 219.677L231.744 217.695V218.325L233.699 220.058C233.773 219.916 233.866 219.787 233.98 219.677H233.983Z" fill="white"/>
<path d="M233.914 221.581L232.113 224.61C232.196 224.683 232.281 224.756 232.357 224.838C232.394 224.875 232.426 224.914 232.463 224.951L234.291 221.873C234.149 221.8 234.023 221.699 233.914 221.585V221.581Z" fill="white"/>
<path d="M202.872 201.837C202.636 201.837 202.397 201.776 202.173 201.65C201.507 201.264 201.276 200.408 201.661 199.742C202.047 199.076 202.905 198.845 203.57 199.23C204.237 199.616 204.469 200.473 204.083 201.138C203.823 201.585 203.351 201.837 202.868 201.837H202.872ZM202.872 199.758C202.636 199.758 202.405 199.88 202.278 200.099C202.092 200.425 202.202 200.842 202.526 201.029C202.851 201.215 203.27 201.106 203.458 200.782C203.644 200.457 203.533 200.038 203.21 199.851C203.103 199.79 202.986 199.762 202.868 199.762L202.872 199.758Z" fill="white"/>
<path d="M182.544 202.851C182.309 202.851 182.069 202.791 181.846 202.665C181.18 202.279 180.947 201.422 181.333 200.756C181.719 200.09 182.576 199.859 183.243 200.245C183.909 200.631 184.14 201.487 183.755 202.154C183.495 202.6 183.024 202.851 182.539 202.851H182.544ZM182.544 200.772C182.309 200.772 182.077 200.894 181.95 201.113C181.764 201.439 181.873 201.857 182.198 202.044C182.523 202.231 182.942 202.122 183.129 201.796C183.316 201.471 183.207 201.052 182.881 200.866C182.776 200.805 182.659 200.777 182.539 200.777L182.544 200.772Z" fill="white"/>
<path d="M208.704 209.893C208.467 209.893 208.228 209.832 208.005 209.706C207.68 209.519 207.448 209.218 207.355 208.857C207.257 208.495 207.306 208.118 207.493 207.797C207.878 207.131 208.736 206.9 209.402 207.285C209.727 207.472 209.959 207.773 210.053 208.135C210.151 208.495 210.101 208.874 209.914 209.194C209.655 209.64 209.183 209.893 208.699 209.893H208.704ZM208.704 207.814C208.467 207.814 208.241 207.935 208.11 208.155C208.021 208.313 207.997 208.495 208.041 208.67C208.086 208.844 208.2 208.991 208.358 209.084C208.683 209.271 209.102 209.161 209.289 208.837C209.378 208.678 209.402 208.495 209.357 208.321C209.309 208.146 209.2 208 209.041 207.907C208.935 207.846 208.818 207.817 208.699 207.817L208.704 207.814Z" fill="white"/>
<path d="M201.478 200.382L199.138 200.683H195.615L192.044 200.229L184.291 195.843C184.263 196.087 184.169 196.318 184.019 196.513L191.751 200.886C191.792 200.91 191.837 200.922 191.881 200.931L195.546 201.398C195.546 201.398 195.575 201.398 195.591 201.398H199.162C199.162 201.398 199.191 201.398 199.208 201.398L201.641 201.085C201.526 200.87 201.47 200.627 201.478 200.382Z" fill="white"/>
<path d="M184.114 194.971C183.728 194.305 182.87 194.074 182.204 194.459C181.538 194.845 181.306 195.701 181.692 196.367C181.951 196.814 182.423 197.066 182.907 197.066C183.142 197.066 183.382 197.006 183.606 196.879C184.272 196.493 184.504 195.637 184.117 194.971H184.114Z" fill="white"/>
<path d="M183.012 200.136L183.175 197.038C183.086 197.054 182.996 197.066 182.907 197.066C182.752 197.066 182.601 197.037 182.46 196.988L182.302 200.078C182.54 200.034 182.788 200.054 183.017 200.136H183.012Z" fill="white"/>
<path d="M207 202.741C206.334 202.356 205.476 202.587 205.09 203.253C204.704 203.919 204.936 204.776 205.602 205.161C205.822 205.287 206.061 205.348 206.302 205.348C206.784 205.348 207.256 205.097 207.516 204.65C207.903 203.984 207.67 203.127 207.005 202.741H207Z" fill="white"/>
<path d="M208.125 207.22L206.948 205.186C206.8 205.263 206.642 205.311 206.48 205.336L207.731 207.492C207.849 207.379 207.983 207.289 208.13 207.22H208.125Z" fill="white"/>
<path d="M212.218 195.446C212.209 195.32 212.14 195.211 212.031 195.15C211.92 195.089 211.79 195.089 211.68 195.15L203.94 199.527C204.099 199.713 204.205 199.936 204.249 200.177L211.283 196.198L206.768 202.629C206.846 202.656 206.927 202.69 207 202.734C207.069 202.775 207.13 202.819 207.187 202.865L211.563 196.632L211.794 201.13L208.962 207.107C209.116 207.136 209.267 207.188 209.41 207.27C209.483 207.31 209.547 207.363 209.612 207.416L212.485 201.354C212.51 201.301 212.522 201.24 212.518 201.183L212.221 195.435L212.218 195.446Z" fill="white"/>
<path d="M210.718 215.694L210.459 214.557C210.459 214.557 210.446 214.517 210.438 214.5C210.438 214.464 210.438 214.427 210.431 214.387L209.357 209.725C209.154 209.832 208.93 209.888 208.704 209.888C208.687 209.888 208.675 209.888 208.658 209.888L209.731 214.549C209.731 214.549 209.743 214.585 209.752 214.606C209.752 214.642 209.752 214.678 209.756 214.715L209.959 215.612L203.262 220.074C203.211 220.111 203.169 220.157 203.141 220.213L199.92 226.673H197.489C197.449 226.673 197.412 226.681 197.375 226.693C197.338 226.681 197.302 226.673 197.261 226.673H194.833L191.61 220.213C191.581 220.157 191.541 220.107 191.488 220.074L184.792 215.612L184.995 214.715C185.002 214.674 185.002 214.635 185 214.593C185.007 214.577 185.015 214.565 185.02 214.549L186.396 208.576C186.396 208.576 186.396 208.568 186.396 208.564L188.92 204.216C188.965 204.134 188.96 204.033 188.908 203.96L183.825 196.721C183.756 196.782 183.683 196.834 183.597 196.883C183.536 196.915 183.475 196.947 183.414 196.972L188.424 204.11L186.19 207.967L183.557 202.413C183.463 202.511 183.362 202.6 183.243 202.669C183.147 202.725 183.049 202.766 182.947 202.795L185.669 208.536L184.321 214.391C184.312 214.427 184.312 214.467 184.317 214.504C184.309 214.525 184.3 214.541 184.296 214.561L184.037 215.697C184.004 215.845 184.065 215.994 184.187 216.076L191.009 220.619L194.287 227.192C194.348 227.314 194.474 227.391 194.609 227.391H197.261C197.302 227.391 197.338 227.383 197.375 227.372C197.412 227.383 197.449 227.391 197.489 227.391H200.142C200.277 227.391 200.402 227.314 200.464 227.192L203.742 220.619L210.564 216.076C210.686 215.994 210.747 215.845 210.714 215.697L210.718 215.694Z" fill="white"/>
<path d="M190.716 215.51C190.772 215.62 190.883 215.69 191.005 215.702L194.178 215.969L193.784 219.742L190.952 217.253C190.923 217.229 190.891 217.212 190.855 217.2L184.841 215.641L186.055 216.449L190.679 217.647L194.926 221.378V223.335C194.926 223.444 194.979 223.551 195.064 223.619L197.107 225.207C197.173 225.259 197.25 225.284 197.327 225.284C197.343 225.284 197.364 225.284 197.38 225.279C197.396 225.279 197.416 225.284 197.432 225.284C197.51 225.284 197.586 225.259 197.652 225.207L199.696 223.619C199.785 223.551 199.834 223.449 199.834 223.335V221.378L204.08 217.647L208.704 216.449L209.918 215.641L203.904 217.2C203.869 217.207 203.836 217.229 203.808 217.253L200.975 219.742L200.581 215.969L203.75 215.702C203.872 215.69 203.982 215.62 204.04 215.51L205.381 212.956C205.442 212.839 205.433 212.701 205.359 212.591C205.287 212.482 205.165 212.422 205.031 212.433L201.897 212.689C201.812 212.697 201.736 212.734 201.674 212.795L200.098 214.37C200.07 214.398 200.048 214.434 200.029 214.467C199.98 214.517 199.952 214.584 199.955 214.658L200.525 220.127L199.509 221.021C199.509 221.021 199.481 221.016 199.468 221.016H197.453C197.424 221.016 197.396 221.016 197.372 221.025C197.347 221.016 197.319 221.016 197.29 221.016H195.275C195.275 221.016 195.246 221.016 195.235 221.021L194.219 220.127L194.791 214.645C194.8 214.565 194.763 214.491 194.706 214.443C194.689 214.415 194.674 214.39 194.65 214.37L193.073 212.795C193.013 212.734 192.935 212.697 192.85 212.689L189.717 212.433C189.583 212.425 189.461 212.482 189.388 212.591C189.315 212.701 189.311 212.839 189.367 212.956L190.708 215.51H190.716ZM202.093 213.391L204.442 213.201L203.495 215.003L200.768 215.235L200.727 214.755L202.093 213.391ZM195.637 221.735H197.295C197.323 221.735 197.351 221.735 197.375 221.728C197.399 221.735 197.428 221.735 197.457 221.735H199.115V223.16L197.375 224.512L195.637 223.16V221.735ZM192.662 213.391L194.028 214.755L193.987 215.235L191.26 215.003L190.314 213.201L192.662 213.391Z" fill="white"/>
<path d="M256.129 217.05L256.885 216.076C256.941 216.002 256.949 215.908 256.909 215.828C256.868 215.747 256.787 215.697 256.697 215.697H255.19C255.101 215.697 255.02 215.751 254.978 215.828C254.938 215.908 254.951 216.006 255.003 216.076L255.759 217.05L255.003 218.024C254.946 218.097 254.938 218.191 254.978 218.272C255.02 218.353 255.101 218.403 255.19 218.403H256.697C256.787 218.403 256.868 218.349 256.909 218.272C256.949 218.191 256.937 218.094 256.885 218.024L256.129 217.05ZM256.214 216.169L255.942 216.521L255.67 216.169H256.218H256.214ZM255.666 217.936L255.938 217.581L256.21 217.936H255.662H255.666Z" fill="white"/>
<path d="M267.804 224.074C268.601 223.869 269.082 223.056 268.875 222.259C268.67 221.462 267.857 220.983 267.06 221.189C266.262 221.394 265.781 222.207 265.989 223.003C266.194 223.801 267.007 224.281 267.804 224.074Z" fill="white"/>
<path d="M267.671 215.772L263.271 211.374C263.206 211.31 263.116 211.268 263.019 211.268H258.948C259.058 210.984 259.122 210.688 259.147 210.384H262.86C262.953 210.384 263.043 210.347 263.113 210.277L267.512 205.88C267.577 205.816 267.619 205.727 267.619 205.629V200.155C267.619 200.155 267.619 200.123 267.614 200.107C267.509 200.131 267.399 200.144 267.286 200.144C267.159 200.144 267.038 200.127 266.92 200.094C266.92 200.115 266.916 200.131 266.916 200.151V205.479L262.722 209.669H259.131C259.11 209.53 259.082 209.397 259.046 209.263L263.023 205.287C263.088 205.223 263.128 205.134 263.128 205.036V198.56C263.128 198.466 263.092 198.377 263.023 198.308L259.061 194.35C258.924 194.211 258.7 194.211 258.562 194.35C258.423 194.487 258.423 194.711 258.562 194.849L262.418 198.702V204.886L258.756 208.544C258.456 208.009 258.005 207.566 257.465 207.273L257.826 206.696C257.879 206.616 257.876 206.506 257.815 206.429L257.029 205.397C256.953 205.296 256.803 205.271 256.701 205.353C256.595 205.43 256.575 205.58 256.656 205.681L257.338 206.583L257.029 207.078C256.693 206.957 256.331 206.888 255.949 206.888C255.568 206.888 255.23 206.952 254.9 207.066L254.592 206.579L255.275 205.677C255.352 205.572 255.331 205.425 255.23 205.349C255.124 205.271 254.978 205.292 254.9 205.393L254.117 206.424C254.056 206.502 254.052 206.611 254.105 206.692L254.463 207.253C253.913 207.542 253.458 207.98 253.154 208.515L249.509 204.873V198.69L253.365 194.837C253.503 194.698 253.503 194.476 253.365 194.337C253.227 194.199 253.003 194.199 252.865 194.337L248.904 198.296C248.839 198.362 248.797 198.45 248.797 198.548V205.023C248.797 205.116 248.834 205.207 248.904 205.275L252.858 209.226C252.816 209.365 252.788 209.511 252.768 209.656H249.204L245.011 205.466V200.139C245.011 200.139 245.011 200.115 245.011 200.099C244.902 200.123 244.788 200.139 244.669 200.139C244.552 200.139 244.426 200.123 244.312 200.094C244.312 200.107 244.309 200.123 244.309 200.136V205.608C244.309 205.702 244.345 205.792 244.413 205.86L248.815 210.258C248.88 210.323 248.969 210.363 249.067 210.363H252.751C252.776 210.667 252.84 210.964 252.951 211.249H248.912C248.819 211.249 248.73 211.285 248.661 211.353L244.259 215.751C244.195 215.815 244.154 215.906 244.154 216.002V221.293C244.251 221.272 244.357 221.261 244.459 221.261C244.597 221.261 244.731 221.28 244.861 221.317V216.149L249.054 211.959H252.959C252.422 212.369 251.979 212.88 251.651 213.457C251.638 213.466 251.627 213.469 251.618 213.477L248.758 216.336C248.693 216.4 248.652 216.49 248.652 216.587V223.063C248.652 223.156 248.688 223.246 248.758 223.315L252.719 227.274C252.788 227.343 252.877 227.379 252.971 227.379C253.064 227.379 253.154 227.343 253.223 227.274C253.361 227.135 253.361 226.912 253.223 226.774L249.367 222.921V216.738L251.089 215.016C251.038 215.304 251.009 215.6 251.009 215.901C251.009 218.633 253.231 220.855 255.966 220.855C258.7 220.855 260.922 218.633 260.922 215.901C260.922 215.588 260.894 215.28 260.833 214.98L262.593 216.738V222.921L258.737 226.774C258.598 226.912 258.598 227.135 258.737 227.274C258.806 227.343 258.895 227.379 258.988 227.379C259.082 227.379 259.171 227.343 259.241 227.274L263.201 223.315C263.267 223.25 263.308 223.161 263.308 223.063V216.587C263.308 216.494 263.271 216.404 263.201 216.336L260.341 213.477C260.317 213.453 260.289 213.437 260.26 213.42C259.935 212.855 259.5 212.357 258.972 211.955H262.905L267.099 216.145V221.155C267.22 221.122 267.342 221.107 267.473 221.107C267.586 221.107 267.696 221.119 267.806 221.147V215.998C267.806 215.906 267.769 215.815 267.699 215.747L267.671 215.772ZM260.192 215.921C260.192 218.264 258.286 220.168 255.942 220.168C253.597 220.168 251.691 218.264 251.691 215.921C251.691 214.387 252.524 212.965 253.865 212.214C253.954 212.166 254.02 212.076 254.039 211.975C254.06 211.873 254.035 211.768 253.971 211.686C253.617 211.24 253.43 210.704 253.426 210.14C253.439 210.107 253.442 210.071 253.442 210.034C253.442 210.006 253.442 209.981 253.434 209.956C253.524 208.654 254.612 207.622 255.937 207.622C257.261 207.622 258.448 208.748 258.448 210.131C258.448 210.699 258.26 211.24 257.903 211.686C257.839 211.768 257.815 211.873 257.834 211.975C257.855 212.076 257.919 212.166 258.01 212.214C259.35 212.965 260.183 214.387 260.183 215.921H260.192Z" fill="white"/>
<path d="M267.285 200.155C266.464 200.155 265.793 199.485 265.793 198.666C265.793 197.845 266.464 197.175 267.285 197.175C268.105 197.175 268.775 197.845 268.775 198.666C268.775 199.485 268.105 200.155 267.285 200.155ZM267.285 197.881C266.853 197.881 266.5 198.236 266.5 198.666C266.5 199.096 266.853 199.449 267.285 199.449C267.715 199.449 268.068 199.096 268.068 198.666C268.068 198.236 267.715 197.881 267.285 197.881Z" fill="white"/>
<path d="M244.653 200.168C245.476 200.168 246.144 199.501 246.144 198.677C246.144 197.855 245.476 197.188 244.653 197.188C243.829 197.188 243.162 197.855 243.162 198.677C243.162 199.501 243.829 200.168 244.653 200.168Z" fill="white"/>
<path d="M244.445 224.265C243.625 224.265 242.955 223.596 242.955 222.775C242.955 221.955 243.625 221.285 244.445 221.285C245.266 221.285 245.937 221.955 245.937 222.775C245.937 223.596 245.266 224.265 244.445 224.265ZM244.445 221.992C244.015 221.992 243.662 222.345 243.662 222.775C243.662 223.206 244.015 223.559 244.445 223.559C244.876 223.559 245.23 223.206 245.23 222.775C245.23 222.345 244.876 221.992 244.445 221.992Z" fill="white"/>
<path fill-rule="evenodd" clip-rule="evenodd" d="M187.059 93.7329C187.059 96.3153 187.246 98.894 187.616 101.451L188.413 106.953C187.701 107.079 186.97 107.148 186.222 107.148C185.474 107.148 184.747 107.079 184.032 106.953L184.829 101.451C185.198 98.894 185.385 96.3153 185.385 93.7329V82.2018C185.661 82.1824 185.938 82.1694 186.222 82.1694C186.507 82.1694 186.783 82.1824 187.059 82.2018V93.7329ZM178.66 104.599L181.916 98.2808C182.159 97.8016 182.289 97.2735 182.289 96.738V82.8076C177.316 84.4596 173.728 89.1369 173.728 94.6587C173.728 98.7155 175.666 102.317 178.66 104.599ZM190.167 96.738C190.167 97.2735 190.298 97.8053 190.542 98.2808L193.796 104.599C196.791 102.317 198.728 98.7155 198.728 94.6587C198.728 89.1369 195.141 84.4559 190.167 82.8076V96.738Z" fill="white"/>
<path d="M275.83 90.6103V90.3467H277.2V90.6103H275.83ZM276.363 92.0929V90.4975H276.667V92.0929H276.363ZM277.504 92.0929V90.3467H277.809V92.0929H277.504ZM278.338 92.0929L277.562 90.3467H277.874L278.415 91.6296L278.955 90.3467H279.268L278.492 92.0929H278.329H278.338ZM279.024 92.0929V90.3467H279.329V92.0929H279.024Z" fill="white"/>
<path d="M213.055 87.0298C208.374 87.0298 204.973 90.3789 204.973 94.9916V95.1664C204.973 99.8437 208.296 103.108 213.055 103.108C217.812 103.108 221.091 99.8151 221.091 95.1016V94.9268C221.091 90.2772 217.788 87.0298 213.055 87.0298ZM208.272 94.9712C208.272 91.6294 210.104 89.5511 213.055 89.5511C216.004 89.5511 217.816 91.6701 217.816 94.9472V95.122C217.816 98.4267 215.967 100.562 213.099 100.562C210.23 100.562 208.277 98.3333 208.277 95.1414V94.9675L208.272 94.9712Z" fill="white"/>
<path d="M235.78 86.4333C235.256 86.2705 234.846 86.2095 234.204 86.2095C231.68 86.2095 230.233 87.6431 230.233 90.1441V91.3817H225.825V90.0146C225.825 88.7428 226.585 88.4755 227.219 88.4755C227.715 88.4755 228.109 88.593 228.365 88.6864C228.402 88.6984 228.442 88.6948 228.474 88.6735C228.506 88.6541 228.528 88.6171 228.528 88.5764V86.5508C228.528 86.498 228.495 86.4527 228.442 86.437C227.918 86.2742 227.512 86.2178 226.886 86.2178C224.326 86.2178 222.916 87.6144 222.916 90.1515V102.78C222.916 102.844 222.969 102.897 223.038 102.897H225.699C225.764 102.897 225.821 102.844 225.821 102.78V93.5913H230.23V102.78C230.23 102.844 230.282 102.897 230.352 102.897H233.013C233.077 102.897 233.135 102.844 233.135 102.78V93.5913H235.629C235.694 93.5913 235.751 93.5377 235.751 93.4738V91.5121C235.751 91.4473 235.699 91.3946 235.629 91.3946H233.135V90.0507C233.135 88.7798 233.895 88.5125 234.528 88.5125C235.052 88.5125 235.454 88.6134 235.699 88.6984C235.735 88.7105 235.776 88.7068 235.809 88.6864C235.841 88.6661 235.861 88.63 235.861 88.5884V86.5591C235.861 86.5064 235.829 86.461 235.776 86.4453H235.772L235.78 86.4333Z" fill="white"/>
<path d="M243.609 93.4929C240.916 93.1109 240.461 92.5226 240.461 91.3489C240.461 90.1761 241.427 89.4454 243.04 89.4454C244.813 89.4454 245.681 90.1076 245.953 91.6541C245.961 91.7114 246.014 91.7512 246.076 91.7512H248.757C248.79 91.7512 248.826 91.7392 248.847 91.7114C248.867 91.6865 248.88 91.6541 248.875 91.618C248.562 88.6296 246.547 87.0498 243.036 87.0498C239.741 87.0498 237.442 88.9126 237.442 91.5894C237.442 94.2652 239.022 95.6729 243.086 96.2094C245.803 96.6441 246.258 97.2573 246.258 98.4634C246.258 99.8064 245.113 100.717 243.414 100.717C240.757 100.717 240.22 99.4004 240.037 97.976C240.03 97.9149 239.976 97.8705 239.915 97.8705H237.101C237.068 97.8705 237.035 97.8862 237.011 97.9066C236.986 97.9269 236.979 97.9639 236.979 97.9963C237.153 100.326 238.412 103.107 243.41 103.107C246.831 103.107 249.313 101.053 249.313 98.2266C249.313 94.9256 247.128 93.9683 243.601 93.4975L243.609 93.4929Z" fill="white"/>
<path d="M260.637 92.5112C259.662 91.6187 258.325 91.147 256.765 91.147C253.327 91.147 250.926 93.5869 250.926 97.0869V97.2617C250.926 100.762 253.316 103.113 256.874 103.113C259.926 103.113 261.896 101.74 262.275 99.3483C262.283 99.3159 262.275 99.2799 262.246 99.2512C262.222 99.2271 262.19 99.2105 262.153 99.2105H259.58C259.524 99.2105 259.471 99.2512 259.458 99.3076C259.264 100.383 258.419 100.933 256.94 100.933C255.104 100.933 254.027 99.8311 253.9 97.8296H262.193C262.259 97.8296 262.315 97.7778 262.315 97.7121V96.9574C262.315 95.0326 261.75 93.5379 260.633 92.5159L260.637 92.5112ZM253.961 95.8447C254.254 94.2159 255.274 93.2826 256.765 93.2826C258.374 93.2826 259.271 94.1437 259.426 95.8447H253.961Z" fill="white"/>
<path d="M275.475 98.4918C275.451 98.4678 275.419 98.4557 275.387 98.4557H272.945C272.884 98.4557 272.831 98.5002 272.823 98.5649C272.689 99.9662 271.648 100.872 270.174 100.872C268.223 100.872 267.109 99.5481 267.109 97.2413V97.0665C267.109 94.8864 268.288 93.4815 270.113 93.4815C271.587 93.4815 272.432 94.1632 272.627 95.5117C272.636 95.569 272.689 95.6134 272.749 95.6134H275.322C275.354 95.6134 275.387 95.6014 275.411 95.5718C275.431 95.5478 275.443 95.5154 275.439 95.4793C275.167 92.7267 273.205 91.147 270.064 91.147C266.63 91.147 264.136 93.6563 264.136 97.1081V97.282C264.136 100.77 266.517 103.113 270.064 103.113C273.159 103.113 275.297 101.334 275.509 98.5815C275.509 98.5492 275.5 98.5159 275.475 98.4918Z" fill="white"/>
</g>
</g>
<defs>
<filter id="filter0_d_2882_9666" x="122.395" y="34.9356" width="205.286" height="230.133" filterUnits="userSpaceOnUse" color-interpolation-filters="sRGB">
<feFlood flood-opacity="0" result="BackgroundImageFix"/>
<feColorMatrix in="SourceAlpha" type="matrix" values="0 0 0 0 0 0 0 0 0 0 0 0 0 0 0 0 0 0 127 0" result="hardAlpha"/>
<feOffset/>
<feGaussianBlur stdDeviation="4.8"/>
<feColorMatrix type="matrix" values="0 0 0 0 0 0 0 0 0 0 0 0 0 0 0 0 0 0 0.1 0"/>
<feBlend mode="normal" in2="BackgroundImageFix" result="effect1_dropShadow_2882_9666"/>
<feBlend mode="normal" in="SourceGraphic" in2="effect1_dropShadow_2882_9666" result="shape"/>
</filter>
<linearGradient id="paint0_linear_2882_9666" x1="225.042" y1="269.48" x2="225.042" y2="68.9087" gradientUnits="userSpaceOnUse">
<stop stop-color="#236262"/>
<stop offset="0.28" stop-color="#307A7A"/>
<stop offset="0.63" stop-color="#00BBB4"/>
<stop offset="1" stop-color="#60B47F"/>
</linearGradient>
<linearGradient id="paint1_linear_2882_9666" x1="225.041" y1="301.648" x2="225.041" y2="124.075" gradientUnits="userSpaceOnUse">
<stop stop-color="#60B47F"/>
<stop offset="0.37" stop-color="#00BBB4"/>
<stop offset="0.72" stop-color="#307A7A"/>
<stop offset="1" stop-color="#236262"/>
</linearGradient>
<linearGradient id="paint2_linear_2882_9666" x1="225.042" y1="202.02" x2="225.042" y2="88.7881" gradientUnits="userSpaceOnUse">
<stop stop-color="#236262"/>
<stop offset="1" stop-color="#01B8B1"/>
</linearGradient>
</defs>
</svg>
