<svg width="520" height="600" viewBox="0 0 520 600" fill="none" xmlns="http://www.w3.org/2000/svg">
<path d="M0 167.2V432.7C0 443.4 5.7 453.3 15 458.7L245 591.5C254.3 596.9 265.7 596.9 275 591.5L505 458.7C514.3 453.3 520 443.4 520 432.7V167.2C520 156.5 514.3 146.6 505 141.2L275 8.49995C265.7 3.09995 254.3 3.09995 245 8.49995L15 141.2C5.7 146.6 0 156.5 0 167.2Z" fill="url(#paint0_linear_534_101)"/>
<path d="M31 185.1V414.9C31 425.6 36.7 435.5 46 440.9L245 555.8C254.3 561.2 265.7 561.2 275 555.8L474 440.9C483.3 435.5 489 425.6 489 414.9V185.1C489 174.4 483.3 164.5 474 159.1L275 44.3C265.7 38.9 254.3 38.9 245 44.3L46 159.1C36.7 164.5 31 174.4 31 185.1Z" fill="url(#paint1_linear_534_101)"/>
<path d="M520 222.1H0V391.7H520V222.1Z" fill="url(#paint2_linear_534_101)"/>
<path d="M286.1 463.6C285.8 463.6 285.5 463.5 285.3 463.2C265.5 441.5 255 432 222.9 418.7C222.4 418.5 222.1 417.9 222.2 417.4C222.3 416.8 222.9 416.5 223.4 416.6C264.6 422.2 291.6 461.1 291.9 461.5C292.1 461.8 292.2 462.3 292 462.6C291.8 463 291.5 463.2 291.1 463.2L286.1 463.6C286.2 463.6 286.2 463.6 286.1 463.6ZM234.3 421.2C258.8 432.4 269.2 442.1 286.6 461.3L288.9 461.2C283.9 454.5 263.7 429.8 234.3 421.2Z" fill="white"/>
<path d="M300.2 485.2C300.2 485.1 300.2 485 300.1 485C299.2 483.9 298.2 482.2 297.3 480.6C296.8 479.8 296.4 479.1 296 478.6C295.8 478.3 295.6 478.1 295.4 477.9C295.2 477.7 295 477.6 294.6 477.6C294.5 477.6 294.3 477.6 294.2 477.7C294.1 477.8 294 477.9 293.9 478C293.7 478.4 293.6 478.9 293.6 479.4C293.6 480.4 293.9 481.6 294.5 482.5C294.8 482.8 295.1 483.2 295.5 483.5C296.5 484.4 297.9 485.2 298.2 485.4V485.5C298.2 485.6 298.3 485.7 298.3 485.8C298.3 486 298.5 486.1 298.7 486.2C299 486.3 299.2 486.3 299.4 486.3C299.6 486.3 299.8 486.3 300 486.1C300.1 486 300.2 485.9 300.2 485.8C300.2 485.7 300.2 485.6 300.2 485.5C300.2 485.5 300.2 485.3 300.2 485.2Z" fill="white"/>
<path d="M229.8 513.3C228.6 513 227.5 513.2 226.5 513.8C225.5 514.4 224.8 515.4 224.5 516.5C224.2 517.7 224.4 518.8 225 519.8C225.6 520.8 226.6 521.5 227.7 521.8C228 521.9 228.4 521.9 228.7 521.9C230.7 521.9 232.5 520.5 233 518.5C233.3 517.3 233.1 516.2 232.5 515.2C232 514.3 231 513.6 229.8 513.3Z" fill="white"/>
<path d="M249.6 491.3C249 490.3 248 489.6 246.9 489.3C245.7 489 244.6 489.2 243.6 489.8C242.6 490.4 241.9 491.4 241.6 492.5C241.3 493.7 241.5 494.8 242.1 495.8C242.7 496.8 243.7 497.5 244.8 497.8C245.1 497.9 245.5 497.9 245.8 497.9C246.6 497.9 247.4 497.7 248.1 497.2C249.1 496.6 249.8 495.6 250.1 494.5C250.4 493.5 250.3 492.3 249.6 491.3Z" fill="white"/>
<path d="M268.3 522.1C268 522.1 267.6 522.1 267.3 522C266.1 521.7 265.2 521 264.6 520C264 519 263.8 517.8 264.1 516.7C264.4 515.5 265.1 514.6 266.1 514C267.1 513.4 268.3 513.2 269.4 513.5C270.6 513.8 271.5 514.5 272.1 515.5C272.7 516.5 272.9 517.7 272.6 518.8C272.2 520.7 270.3 522.1 268.3 522.1ZM267.8 519.7C269 520 270.1 519.3 270.4 518.1C270.5 517.5 270.4 517 270.1 516.5C269.8 516 269.3 515.7 268.8 515.5C268.2 515.4 267.7 515.5 267.2 515.8C266.7 516.1 266.4 516.6 266.2 517.1C266.1 517.7 266.2 518.2 266.5 518.7C266.8 519.3 267.3 519.6 267.8 519.7Z" fill="white"/>
<path d="M219.1 506.1C218.8 506.1 218.4 506.1 218.1 506C216.9 505.7 216 505 215.4 504C214.8 503 214.6 501.8 214.9 500.7C215.2 499.5 215.9 498.6 216.9 498C217.9 497.4 219.1 497.2 220.2 497.5C221.4 497.8 222.3 498.5 222.9 499.5C223.5 500.5 223.7 501.7 223.4 502.8C223.1 504 222.4 504.9 221.4 505.5C220.7 505.9 219.9 506.1 219.1 506.1ZM219.1 499.5C218.7 499.5 218.3 499.6 218 499.8C217.5 500.1 217.2 500.6 217 501.1C216.9 501.7 217 502.2 217.3 502.7C217.6 503.2 218.1 503.5 218.6 503.7C219.2 503.8 219.7 503.7 220.2 503.4C220.7 503.1 221 502.6 221.2 502.1C221.3 501.5 221.2 501 220.9 500.5C220.6 500 220.1 499.7 219.6 499.5C219.4 499.5 219.3 499.5 219.1 499.5Z" fill="white"/>
<path d="M237.3 470.2C237 470.2 236.6 470.2 236.3 470.1C233.9 469.5 232.5 467.1 233 464.8C233.3 463.6 234 462.7 235 462.1C236 461.5 237.2 461.3 238.3 461.6C240.7 462.2 242.1 464.6 241.6 466.9C241.1 468.8 239.3 470.2 237.3 470.2ZM236.8 467.8C238 468.1 239.1 467.4 239.4 466.2C239.7 465 239 463.9 237.8 463.6C237.2 463.5 236.7 463.6 236.2 463.9C235.7 464.2 235.4 464.7 235.2 465.2C234.9 466.4 235.6 467.5 236.8 467.8Z" fill="white"/>
<path d="M265.2 514.5C265.5 514.2 265.7 514 266 513.8C266.4 513.6 266.7 513.4 267.1 513.3C263.5 507.8 257.3 500.9 250 495.1C249.7 495.8 249.3 496.5 248.7 497C255.8 502.6 261.7 509.3 265.2 514.5Z" fill="white"/>
<path d="M233.1 518.8H264.1C263.9 518.1 263.9 517.4 264.1 516.6V516.5H241.9C239 513.1 225.2 496.5 227 481.9C227.5 477.5 229.4 473.7 232.7 470.5C232.6 470.8 232.5 471.1 232.4 471.5C230.6 478.7 234.4 487 241.8 492.2C242.1 491.5 242.5 490.8 243.1 490.4C235.5 485.1 233.3 477.3 234.6 472.1C234.8 471.3 235.1 470.6 235.4 469.9C234.5 469.5 233.8 468.8 233.3 467.9C228.8 471.7 226.1 476.3 225.4 481.8C224.3 490.7 228.7 500.1 232.6 506.5C235.3 511 238.2 514.6 239.9 516.6H233.1C233.3 517.3 233.3 518 233.1 518.8C233.1 518.7 233.1 518.7 233.1 518.8Z" fill="white"/>
<path d="M221.4 505.5C221.3 505.6 221.1 505.6 221 505.7C223.4 508.7 225.1 511.6 226.2 514.1C226.3 514 226.4 514 226.4 513.9C227 513.5 227.6 513.3 228.3 513.3C227.1 510.6 225.3 507.5 222.7 504.3C222.4 504.7 221.9 505.1 221.4 505.5Z" fill="white"/>
<path d="M330.2 502.2C330.1 501.7 329.6 501.4 329.1 501.4C329 501.4 326.2 501.4 319.9 499C314.2 496.9 307.5 490.9 305.9 489.2C306 489.2 306 489.2 306.1 489.1C306.3 489.1 306.5 489 306.6 488.9C307 488.5 307.3 488 307.3 487.4C307.4 485.2 304.3 482.1 304 481.7C303.5 481.2 300.9 477.1 295 467.1L294.8 466.8L294.7 466.7C294.5 466.4 294.3 465.9 293.6 465.5C293.5 465.4 293.4 465.4 293.3 465.4C291.6 464.9 286.2 465.7 283.8 466.1C283.5 465.7 282.9 465 282.7 464.7C282.5 464.4 282.4 464.3 282.3 464.2C280.6 462.2 278.7 460.2 276.7 458.4C270.5 452.5 263.9 448.3 257.1 445.9C251.3 443.8 246.2 438.3 245 432.8C244.9 432.4 244.8 431.9 244.8 431.5C244.8 431 244.4 430.5 243.9 430.4C243.4 430.3 242.9 430.5 242.6 431C240.6 435.1 241.9 440.6 242.8 443.5C230 442.3 225.5 432.8 225.3 432.4C225.1 431.9 224.6 431.7 224.1 431.7C223.6 431.8 223.2 432.2 223.1 432.7C222.1 440.2 225.5 444.9 227.8 447.2C217.8 448.9 210.4 440.9 210.3 440.8C210 440.5 209.5 440.3 209.1 440.5C208.7 440.6 208.4 441 208.3 441.5C208.3 441.8 207.5 449.1 218 454.7C212.5 460.1 209.4 466.7 209 474.3C208.5 483.2 211.6 492.3 215.6 498.9C215.9 498.6 216.2 498.3 216.6 498.1C216.9 497.9 217.2 497.8 217.5 497.7C213.7 491.4 210.8 482.9 211.3 474.5C211.8 466.9 214.9 460.5 220.8 455.3C221.1 455 221.2 454.7 221.2 454.3C221.1 453.9 220.9 453.6 220.6 453.4C214.4 450.4 212.1 447 211.2 444.6C214.8 447.4 221.9 451.6 230.7 448.9C231.1 448.8 231.4 448.4 231.5 448C231.6 447.6 231.4 447.1 231 446.9C230.9 446.9 225.9 443.6 225.4 436.7C228.1 440.2 233.7 445.3 243.4 446H243.5C243.8 446 244.1 446 244.4 446H244.5C244.9 446 245.2 445.8 245.4 445.5C245.6 445.2 245.7 444.8 245.5 444.4C244.8 442.6 244 439.5 243.9 436.7C246.2 441.7 251 446.3 256.3 448.2C262.8 450.6 269.1 454.6 275.1 460.3C277 462.1 278.9 464 280.5 465.9C280.5 466 280.6 466.1 280.8 466.3C282.3 468.3 282.7 468.9 283.5 468.7C287 468.1 291.1 467.6 292.3 467.8C292.4 467.9 292.4 467.9 292.5 468.1C292.5 468.2 292.6 468.3 292.6 468.4L292.8 468.7C298.2 477.9 301.4 482.9 302.2 483.8C303.6 485.2 304.6 486.8 304.8 487.5C304.1 487.7 303.6 488.1 303.4 488.6C303.2 489 303.1 489.6 303.4 490.3C303.8 491.2 312.1 498.9 318.9 501.5C321.9 502.6 324.2 503.2 325.8 503.6C322.6 505.7 317.7 509.3 315.4 511.6C307.8 502.4 296.4 495.7 295 494.9C293.9 494.3 292.2 493.5 290.2 492.6C286 490.7 280.3 488.2 278.6 486C276 482.8 275.9 479.3 276 475.3C276 475 275.9 474.6 275.6 474.4C275.4 474.3 271.6 471 265.9 467.9C260.6 465 252.5 461.7 244.5 462.3C243 462.4 241.7 462.7 240.4 463.1C240.9 463.7 241.3 464.4 241.5 465.1C242.5 464.8 243.5 464.6 244.7 464.5C257.8 463.5 271.3 473.8 273.8 475.8C273.7 479.8 274 483.8 276.9 487.4C279 490 284.8 492.6 289.4 494.7C291.3 495.6 293 496.3 294 496.9C295.3 497.7 307.4 504.7 314.6 514.1C314.8 514.4 315.2 514.6 315.6 514.5C316 514.5 316.3 514.2 316.5 513.9C317.5 512.1 325.1 506.7 329.6 503.8C330.1 503.2 330.3 502.6 330.2 502.2Z" fill="white"/>
<path d="M101.4 361C91.6 361 83 359.3 75.8 355.9C68.6 352.5 62.6 347.9 57.9 342.2C53.2 336.5 49.7 330.4 47.4 323.9C45.1 317.4 44 311.1 44 305V301.7C44 295 45.2 288.4 47.6 281.8C50 275.2 53.6 269.2 58.4 263.8C63.2 258.4 69.2 254.1 76.4 250.9C83.6 247.7 91.9 246.1 101.5 246.1C111.1 246.1 119.4 247.7 126.6 250.9C133.8 254.1 139.8 258.4 144.7 263.8C149.5 269.2 153.1 275.2 155.5 281.8C157.9 288.4 159.1 295.1 159.1 301.7V305C159.1 311.1 157.9 317.4 155.6 323.9C153.3 330.4 149.7 336.5 145 342.2C140.3 347.9 134.3 352.4 127.1 355.9C119.7 359.3 111.2 361 101.4 361ZM101.4 341.4C107 341.4 112 340.4 116.5 338.4C121 336.4 124.8 333.7 127.9 330.1C131 326.6 133.4 322.5 135.1 318C136.7 313.5 137.6 308.7 137.6 303.6C137.6 298.2 136.8 293.3 135.1 288.7C133.4 284.1 131 280.1 127.9 276.7C124.8 273.3 121 270.6 116.6 268.7C112.2 266.8 107.2 265.9 101.6 265.9C96.1 265.9 91.2 266.8 86.7 268.7C82.2 270.6 78.4 273.3 75.3 276.7C72.2 280.1 69.8 284.1 68.1 288.7C66.5 293.3 65.6 298.2 65.6 303.6C65.6 308.7 66.4 313.5 68.1 318C69.7 322.5 72.1 326.6 75.3 330.1C78.4 333.6 82.2 336.4 86.7 338.4C90.9 340.4 95.9 341.4 101.4 341.4Z" fill="white"/>
<path d="M215.6 361C206.1 361 197.9 359.5 191.3 356.4C184.6 353.3 179.6 349.1 176.2 343.6C172.8 338.2 171.1 332 171.1 325.2H191.8C191.8 328.1 192.6 330.9 194.2 333.6C195.8 336.3 198.4 338.5 201.9 340.2C205.4 341.9 210 342.7 215.7 342.7C221 342.7 225.3 342 228.8 340.5C232.3 339 234.8 337 236.6 334.6C238.3 332.2 239.2 329.4 239.2 326.3C239.2 322.5 237.6 319.5 234.3 317.1C231 314.8 225.9 313.3 218.9 312.7L209.4 311.8C199 310.9 190.6 307.6 184.4 302C178.2 296.4 175.1 288.9 175.1 279.7C175.1 272.7 176.7 266.7 180 261.7C183.3 256.7 187.9 252.8 193.8 250.1C199.7 247.4 206.7 246 214.6 246C222.9 246 230 247.4 236 250.3C242 253.2 246.6 257.2 249.9 262.5C253.1 267.7 254.7 273.9 254.7 280.9H234C234 278 233.3 275.3 231.9 272.8C230.5 270.3 228.4 268.2 225.5 266.6C222.6 265 219 264.2 214.6 264.2C210.4 264.2 207 264.9 204.2 266.4C201.5 267.8 199.4 269.7 198 272.1C196.6 274.4 195.9 277 195.9 279.8C195.9 283.2 197.1 286.1 199.6 288.7C202.1 291.2 206 292.7 211.4 293.1L220.8 294C228.7 294.6 235.5 296.2 241.3 298.9C247.1 301.6 251.7 305.2 255 309.8C258.3 314.4 259.9 319.9 259.9 326.4C259.9 333.3 258.1 339.3 254.5 344.5C250.9 349.7 245.8 353.8 239.2 356.7C232.5 359.6 224.7 361 215.6 361Z" fill="white"/>
<path d="M328.3 361C318.4 361 309.9 359.3 302.9 355.9C295.9 352.5 290.2 347.9 285.7 342.3C281.3 336.7 278 330.6 275.9 324.1C273.8 317.6 272.8 311.2 272.8 305.1V301.8C272.8 295 273.9 288.4 276 281.8C278.1 275.2 281.4 269.3 285.8 263.9C290.2 258.5 295.9 254.2 302.8 251C309.7 247.8 317.9 246.2 327.3 246.2C337.1 246.2 345.7 248 353.1 251.6C360.5 255.2 366.3 260.2 370.7 266.5C375.1 272.9 377.7 280.3 378.6 288.9H357.1C356.4 283.9 354.7 279.8 352 276.4C349.3 273 345.8 270.4 341.6 268.6C337.4 266.8 332.6 265.9 327.4 265.9C322.1 265.9 317.4 266.8 313.2 268.7C309 270.6 305.5 273.2 302.8 276.6C300 280 297.9 284 296.5 288.5C295.1 293.1 294.3 298.1 294.3 303.6C294.3 309 295 313.9 296.5 318.5C297.9 323.1 300.1 327.1 303 330.5C305.9 333.9 309.4 336.6 313.7 338.5C317.9 340.4 322.8 341.3 328.4 341.3C336.6 341.3 343.4 339.3 349 335.3C354.6 331.3 358 325.6 359.1 318.4H380.6C379.6 326.2 377 333.3 372.7 339.7C368.4 346.2 362.6 351.3 355.1 355.2C347.5 359.1 338.6 361 328.3 361Z" fill="white"/>
<path d="M398.4 358.2V248.6H419.6V358.3H398.4V358.2ZM416.6 324.8V306.4H437.8C442 306.4 445.5 305.6 448.5 303.9C451.4 302.2 453.7 299.9 455.3 296.9C456.9 293.9 457.7 290.5 457.7 286.8C457.7 282.8 456.9 279.3 455.3 276.4C453.7 273.4 451.4 271.1 448.5 269.5C445.6 267.9 442 267 437.8 267H416.6V248.7H436C445.1 248.7 452.9 250.2 459.3 253.2C465.7 256.2 470.6 260.4 474 266C477.4 271.5 479.1 278.1 479.1 285.8V288.2C479.1 295.7 477.4 302.2 474 307.7C470.6 313.3 465.7 317.5 459.3 320.5C452.9 323.5 445.1 325 436 325H416.6V324.8Z" fill="white"/>
<path fill-rule="evenodd" clip-rule="evenodd" d="M166.5 161.4C166.5 167.8 167 174.1 167.9 180.4L169.9 193.9C168.1 194.2 166.4 194.4 164.5 194.4C162.6 194.4 160.9 194.2 159.1 193.9L161.1 180.4C162 174.1 162.5 167.8 162.5 161.4V133C163.2 133 163.9 132.9 164.6 132.9C165.3 132.9 166 132.9 166.7 133V161.4H166.5ZM145.8 188.2L153.8 172.6C154.4 171.4 154.7 170.1 154.7 168.8V134.5C142.5 138.6 133.6 150.1 133.6 163.7C133.7 173.7 138.5 182.6 145.8 188.2ZM174.2 168.8C174.2 170.1 174.5 171.4 175.1 172.6L183.1 188.2C190.5 182.6 195.2 173.7 195.2 163.7C195.2 150.1 186.4 138.6 174.1 134.5V168.8H174.2Z" fill="white"/>
<path d="M385 153.7V153H388.4V153.7H385ZM386.3 157.4V153.5H387V157.4H386.3ZM389.1 157.4V153.1H389.8V157.4H389.1ZM391.2 157.4L389.3 153.1H390.1L391.4 156.3L392.7 153.1H393.5L391.6 157.4H391.2ZM392.9 157.4V153.1H393.6V157.4H392.9Z" fill="white"/>
<path d="M230.5 144.9C219 144.9 210.6 153.1 210.6 164.5V164.9C210.6 176.4 218.8 184.5 230.5 184.5C242.2 184.5 250.3 176.4 250.3 164.8V164.4C250.3 152.9 242.1 144.9 230.5 144.9ZM218.7 164.5C218.7 156.3 223.2 151.2 230.5 151.2C237.8 151.2 242.2 156.4 242.2 164.5V164.9C242.2 173 237.6 178.3 230.6 178.3C223.6 178.3 218.7 172.8 218.7 165V164.5Z" fill="white"/>
<path d="M286.4 143.4C285.1 143 284.1 142.9 282.5 142.9C276.3 142.9 272.7 146.4 272.7 152.6V155.7H261.9V152.3C261.9 149.2 263.8 148.5 265.3 148.5C266.5 148.5 267.5 148.8 268.1 149C268.2 149 268.3 149 268.4 149C268.5 148.9 268.5 148.9 268.5 148.8V143.8C268.5 143.7 268.4 143.6 268.3 143.5C267 143.1 266 143 264.5 143C258.2 143 254.7 146.4 254.7 152.7V183.8C254.7 184 254.8 184.1 255 184.1H261.5C261.7 184.1 261.8 184 261.8 183.8V161H272.6V183.6C272.6 183.8 272.7 183.9 272.9 183.9H279.4C279.6 183.9 279.7 183.8 279.7 183.6V161H285.8C286 161 286.1 160.9 286.1 160.7V155.9C286.1 155.7 286 155.6 285.8 155.6H279.7V152.3C279.7 149.2 281.6 148.5 283.1 148.5C284.4 148.5 285.4 148.8 286 149C286.1 149 286.2 149 286.3 149C286.4 149 286.4 148.9 286.4 148.8V143.8C286.6 143.6 286.6 143.5 286.4 143.4Z" fill="white"/>
<path d="M305.7 160.8C299.1 159.9 297.9 158.4 297.9 155.5C297.9 152.6 300.3 150.8 304.3 150.8C308.7 150.8 310.8 152.4 311.5 156.2C311.5 156.3 311.6 156.4 311.8 156.4H318.4C318.5 156.4 318.6 156.4 318.6 156.3C318.7 156.2 318.7 156.2 318.7 156.1C317.9 148.7 313 144.8 304.3 144.8C296.2 144.8 290.5 149.4 290.5 156C290.5 162.6 294.4 166.1 304.4 167.4C311.1 168.5 312.2 170 312.2 172.9C312.2 176.2 309.4 178.4 305.2 178.4C298.7 178.4 297.3 175.2 296.9 171.7C296.9 171.6 296.8 171.4 296.6 171.4H289.7C289.6 171.4 289.5 171.4 289.5 171.5C289.5 171.6 289.4 171.6 289.4 171.7C289.8 177.4 292.9 184.3 305.2 184.3C313.6 184.3 319.7 179.2 319.7 172.3C319.8 164.4 314.4 162 305.7 160.8Z" fill="white"/>
<path d="M347.6 158.4C345.2 156.2 341.9 155 338.1 155C329.6 155 323.7 161 323.7 169.6V170C323.7 178.6 329.6 184.4 338.3 184.4C345.8 184.4 350.7 181 351.6 175.1C351.6 175 351.6 174.9 351.5 174.9C351.4 174.8 351.4 174.8 351.3 174.8H345C344.9 174.8 344.7 174.9 344.7 175C344.2 177.7 342.1 179 338.5 179C334 179 331.3 176.3 331 171.4H351.4C351.6 171.4 351.7 171.3 351.7 171.1V169.2C351.7 164.6 350.3 160.9 347.6 158.4ZM331.2 166.6C331.9 162.6 334.4 160.3 338.1 160.3C342.1 160.3 344.3 162.4 344.6 166.6H331.2Z" fill="white"/>
<path d="M384.1 173.1C384 173 384 173 383.9 173H377.9C377.7 173 377.6 173.1 377.6 173.3C377.3 176.7 374.7 179 371.1 179C366.3 179 363.6 175.7 363.6 170.1V169.7C363.6 164.3 366.5 160.9 371 160.9C374.6 160.9 376.7 162.6 377.2 165.9C377.2 166 377.3 166.2 377.5 166.2H383.8C383.9 166.2 384 166.2 384 166.1C384.1 166 384.1 166 384.1 165.9C383.4 159.1 378.6 155.2 370.9 155.2C362.4 155.2 356.3 161.4 356.3 169.9V170.3C356.3 178.9 362.2 184.7 370.9 184.7C378.5 184.7 383.8 180.3 384.3 173.5C384.2 173.3 384.2 173.2 384.1 173.1Z" fill="white"/>
<defs>
<linearGradient id="paint0_linear_534_101" x1="259.999" y1="532.832" x2="259.999" y2="112.446" gradientUnits="userSpaceOnUse">
<stop stop-color="#BA4F00"/>
<stop offset="1" stop-color="#E66124"/>
</linearGradient>
<linearGradient id="paint1_linear_534_101" x1="259.999" y1="673.499" x2="259.999" y2="236.15" gradientUnits="userSpaceOnUse">
<stop stop-color="#E66124"/>
<stop offset="1" stop-color="#BA4F00"/>
</linearGradient>
<linearGradient id="paint2_linear_534_101" x1="260" y1="185.698" x2="260" y2="389.648" gradientUnits="userSpaceOnUse">
<stop stop-color="#E66124"/>
<stop offset="1" stop-color="#BA4F00"/>
</linearGradient>
</defs>
</svg>
