<svg width="520" height="600" viewBox="0 0 520 600" fill="none" xmlns="http://www.w3.org/2000/svg">
<path d="M0 167.2V432.7C0 443.4 5.7 453.3 15 458.7L245 591.5C254.3 596.9 265.7 596.9 275 591.5L505 458.7C514.3 453.3 520 443.4 520 432.7V167.2C520 156.5 514.3 146.6 505 141.2L275 8.50001C265.7 3.10001 254.3 3.10001 245 8.50001L15 141.2C5.7 146.6 0 156.5 0 167.2Z" fill="url(#paint0_linear_534_188)"/>
<path d="M31 185.1V414.9C31 425.6 36.7 435.5 46 440.9L245 555.8C254.3 561.2 265.7 561.2 275 555.8L474 440.9C483.3 435.5 489 425.6 489 414.9V185.1C489 174.4 483.3 164.5 474 159.1L275 44.3C265.7 38.9 254.3 38.9 245 44.3L46 159.1C36.7 164.5 31 174.4 31 185.1Z" fill="url(#paint1_linear_534_188)"/>
<path d="M280.1 438.6C279.2 438.6 278.3 438.4 277.5 437.9C275 436.4 274.1 433.2 275.6 430.6C277.1 428.1 280.3 427.2 282.9 428.7C285.4 430.2 286.3 433.4 284.8 436C283.8 437.6 282 438.6 280.1 438.6ZM280.1 430.7C279.2 430.7 278.3 431.2 277.9 432C277.2 433.2 277.6 434.8 278.8 435.5C280 436.2 281.6 435.8 282.3 434.6C283 433.4 282.6 431.8 281.4 431.1C281 430.8 280.6 430.7 280.1 430.7Z" fill="white"/>
<path d="M202.9 442.4C202 442.4 201.1 442.2 200.3 441.7C197.8 440.2 196.9 437 198.4 434.4C199.9 431.9 203.1 431 205.7 432.5C208.2 434 209.1 437.2 207.6 439.8C206.5 441.5 204.7 442.4 202.9 442.4ZM202.9 434.5C202 434.5 201.1 435 200.7 435.8C200 437 200.4 438.6 201.6 439.3C202.8 440 204.4 439.6 205.1 438.4C205.8 437.2 205.4 435.6 204.2 434.9C203.8 434.6 203.4 434.5 202.9 434.5Z" fill="white"/>
<path d="M302.3 469.2C301.4 469.2 300.5 469 299.7 468.5C298.5 467.8 297.6 466.6 297.2 465.3C296.8 463.9 297 462.5 297.7 461.3C299.2 458.8 302.4 457.9 305 459.4C306.2 460.1 307.1 461.3 307.5 462.6C307.9 464 307.7 465.4 307 466.6C305.9 468.2 304.1 469.2 302.3 469.2ZM302.3 461.3C301.4 461.3 300.5 461.8 300.1 462.6C299.8 463.2 299.7 463.9 299.8 464.6C299.9 465.3 300.4 465.8 301 466.2C302.2 466.9 303.8 466.5 304.5 465.3C304.8 464.7 304.9 464 304.8 463.3C304.6 462.6 304.2 462.1 303.6 461.7C303.2 461.4 302.7 461.3 302.3 461.3Z" fill="white"/>
<path d="M274.8 433.1L265.9 434.2H252.5L238.9 432.5L209.4 415.8C209.3 416.7 208.9 417.6 208.4 418.4L237.8 435C238 435.1 238.1 435.1 238.3 435.2L252.2 437C252.3 437 252.3 437 252.4 437H266C266.1 437 266.1 437 266.2 437L275.4 435.8C275 434.9 274.8 434 274.8 433.1Z" fill="white"/>
<path d="M208.9 412.5C207.4 410 204.2 409.1 201.6 410.6C199.1 412.1 198.2 415.3 199.7 417.9C200.7 419.6 202.5 420.6 204.3 420.6C205.2 420.6 206.1 420.4 206.9 419.9C209.5 418.3 210.3 415 208.9 412.5Z" fill="white"/>
<path d="M204.7 432.1L205.3 420.3C205 420.4 204.6 420.4 204.3 420.4C203.7 420.4 203.1 420.3 202.6 420.1L202 431.8C202.9 431.7 203.8 431.8 204.7 432.1Z" fill="white"/>
<path d="M295.8 442C293.3 440.5 290 441.4 288.5 443.9C287 446.4 287.9 449.7 290.4 451.2C291.2 451.7 292.1 451.9 293 451.9C294.8 451.9 296.6 450.9 297.6 449.2C299.2 446.7 298.3 443.5 295.8 442Z" fill="white"/>
<path d="M300.1 459.1L295.6 451.4C295 451.7 294.4 451.9 293.8 452L298.5 460.2C299 459.6 299.5 459.3 300.1 459.1Z" fill="white"/>
<path d="M315.6 414.3C315.6 413.8 315.3 413.4 314.9 413.2C314.5 413 314 413 313.6 413.2L284.2 429.8C284.8 430.5 285.2 431.4 285.4 432.3L312.1 417.2L294.9 441.7C295.2 441.8 295.5 441.9 295.8 442.1C296.1 442.2 296.3 442.4 296.5 442.6L313.1 418.9L314 436L303.2 458.7C303.8 458.8 304.4 459 304.9 459.3C305.2 459.5 305.4 459.6 305.7 459.9L316.6 436.9C316.7 436.7 316.7 436.5 316.7 436.2L315.6 414.3Z" fill="white"/>
<path d="M309.9 491.2L308.9 486.9C308.9 486.8 308.9 486.8 308.8 486.7C308.8 486.6 308.8 486.4 308.8 486.3L304.7 468.6C303.9 469 303.1 469.2 302.2 469.2C302.1 469.2 302.1 469.2 302 469.2L306.1 486.9C306.1 487 306.1 487 306.2 487.1C306.2 487.2 306.2 487.4 306.2 487.5L307 490.9L281.6 507.9C281.4 508 281.2 508.2 281.1 508.4L268.9 533H259.7C259.6 533 259.4 533 259.3 533.1C259.2 533.1 259 533 258.9 533H249.7L237.5 508.4C237.4 508.2 237.2 508 237 507.9L211.6 490.9L212.4 487.5C212.4 487.3 212.4 487.2 212.4 487C212.4 486.9 212.5 486.9 212.5 486.8L217.7 464.1L227.3 447.6C227.5 447.3 227.5 446.9 227.3 446.6L208 419.1C207.7 419.3 207.5 419.5 207.1 419.7C206.9 419.8 206.6 419.9 206.4 420L225.4 447.1L216.9 461.8L206.9 440.7C206.5 441.1 206.2 441.4 205.7 441.7C205.3 441.9 205 442.1 204.6 442.2L214.9 464L209.8 486.2C209.8 486.3 209.8 486.5 209.8 486.6C209.8 486.7 209.7 486.7 209.7 486.8L208.7 491.1C208.6 491.7 208.8 492.2 209.3 492.5L235.2 509.8L247.7 534.8C247.9 535.3 248.4 535.6 248.9 535.6H259C259.1 535.6 259.3 535.6 259.4 535.5C259.5 535.5 259.7 535.6 259.8 535.6H269.9C270.4 535.6 270.9 535.3 271.1 534.8L283.6 509.8L309.5 492.5C309.8 492.4 310 491.8 309.9 491.2Z" fill="white"/>
<path d="M233.9 490.6C234.1 491 234.5 491.3 235 491.3L247 492.3L245.5 506.6L234.7 497.1C234.6 497 234.5 496.9 234.3 496.9L211.5 491L216.1 494.1L233.7 498.7L249.8 512.9V520.3C249.8 520.7 250 521.1 250.3 521.4L258.1 527.4C258.3 527.6 258.6 527.7 258.9 527.7C259 527.7 259 527.7 259.1 527.7C259.2 527.7 259.2 527.7 259.3 527.7C259.6 527.7 259.9 527.6 260.1 527.4L267.9 521.4C268.2 521.1 268.4 520.7 268.4 520.3V512.9L284.5 498.7L302.1 494.1L306.7 491L284 497C283.9 497 283.7 497.1 283.6 497.2L272.8 506.7L271.3 492.4L283.3 491.4C283.8 491.4 284.2 491.1 284.4 490.7L289.5 481C289.7 480.6 289.7 480 289.4 479.6C289.1 479.2 288.7 479 288.2 479L276.3 480C276 480 275.7 480.2 275.4 480.4L269.4 486.4C269.3 486.5 269.2 486.6 269.1 486.8C268.9 487 268.8 487.2 268.8 487.5L271 508.3L267.1 511.7C267 511.7 267 511.7 266.9 511.7H259.2C259.1 511.7 259 511.7 258.9 511.7C258.8 511.7 258.7 511.7 258.6 511.7H250.9C250.8 511.7 250.8 511.7 250.7 511.7L246.8 508.3L249 487.5C249 487.2 248.9 486.9 248.7 486.7C248.6 486.6 248.6 486.5 248.5 486.4L242.5 480.4C242.3 480.2 242 480 241.6 480L229.7 479C229.2 479 228.7 479.2 228.5 479.6C228.2 480 228.2 480.5 228.4 481L233.9 490.6ZM277.2 482.5L286.1 481.8L282.5 488.7L272.1 489.6L271.9 487.8L277.2 482.5ZM252.6 514.2H258.9C259 514.2 259.1 514.2 259.2 514.2C259.3 514.2 259.4 514.2 259.5 514.2H265.8V519.6L259.2 524.7L252.6 519.6V514.2ZM241.3 482.5L246.5 487.7L246.3 489.5L235.9 488.6L232.3 481.7L241.3 482.5Z" fill="white"/>
<path d="M520 222.1H0V391.7H520V222.1Z" fill="url(#paint2_linear_534_188)"/>
<path d="M107.1 361C97.3 361 88.7 359.3 81.5 355.9C74.3 352.5 68.3 347.9 63.6 342.2C58.9 336.5 55.4 330.4 53.1 323.9C50.8 317.4 49.7 311.1 49.7 305V301.7C49.7 295 50.9 288.4 53.3 281.8C55.7 275.2 59.3 269.2 64.1 263.8C68.9 258.4 74.9 254.1 82.1 250.9C89.3 247.7 97.6 246.1 107.2 246.1C116.7 246.1 125.1 247.7 132.3 250.9C139.5 254.1 145.5 258.4 150.4 263.8C155.2 269.2 158.8 275.2 161.2 281.8C163.6 288.4 164.8 295.1 164.8 301.7V305C164.8 311.1 163.6 317.4 161.3 323.9C159 330.4 155.4 336.5 150.7 342.2C146 347.9 140 352.4 132.8 355.9C125.5 359.3 116.9 361 107.1 361ZM107.1 341.4C112.7 341.4 117.7 340.4 122.2 338.4C126.7 336.4 130.5 333.7 133.6 330.1C136.7 326.6 139.1 322.5 140.8 318C142.4 313.5 143.3 308.7 143.3 303.6C143.3 298.2 142.5 293.3 140.8 288.7C139.1 284.1 136.7 280.1 133.6 276.7C130.5 273.3 126.7 270.6 122.3 268.7C117.9 266.8 112.9 265.9 107.3 265.9C101.8 265.9 96.9 266.8 92.4 268.7C87.9 270.6 84.1 273.3 81 276.7C77.9 280.1 75.5 284.1 73.8 288.7C72.2 293.3 71.3 298.2 71.3 303.6C71.3 308.7 72.1 313.5 73.8 318C75.4 322.5 77.8 326.6 81 330.1C84.1 333.6 87.9 336.4 92.4 338.4C96.7 340.4 101.6 341.4 107.1 341.4Z" fill="white"/>
<path d="M221.4 361C211.9 361 203.7 359.5 197.1 356.4C190.4 353.3 185.4 349.1 182 343.6C178.6 338.2 176.9 332 176.9 325.2H197.6C197.6 328.1 198.4 330.9 200 333.6C201.6 336.3 204.2 338.5 207.7 340.2C211.2 341.9 215.8 342.7 221.5 342.7C226.8 342.7 231.1 342 234.6 340.5C238.1 339 240.6 337 242.4 334.6C244.1 332.2 245 329.4 245 326.3C245 322.5 243.4 319.5 240.1 317.1C236.8 314.8 231.7 313.3 224.7 312.7L215 312C204.6 311.1 196.2 307.8 190 302.2C183.8 296.6 180.7 289.1 180.7 279.9C180.7 272.9 182.3 266.9 185.6 261.9C188.9 256.9 193.5 253 199.4 250.3C205.3 247.6 212.3 246.2 220.2 246.2C228.5 246.2 235.6 247.6 241.6 250.5C247.6 253.4 252.2 257.4 255.5 262.7C258.7 267.9 260.3 274.1 260.3 281.1H239.6C239.6 278.2 238.9 275.5 237.5 273C236.1 270.5 234 268.4 231.1 266.8C228.2 265.2 224.6 264.4 220.2 264.4C216 264.4 212.6 265.1 209.8 266.6C207.1 268 205 269.9 203.6 272.3C202.2 274.6 201.5 277.2 201.5 280C201.5 283.4 202.7 286.3 205.2 288.9C207.7 291.4 211.6 292.9 217 293.3L226.4 294.2C234.3 294.8 241.1 296.4 246.9 299.1C252.7 301.8 257.3 305.4 260.6 310C263.9 314.6 265.5 320.1 265.5 326.6C265.5 333.5 263.7 339.5 260.1 344.7C256.5 349.9 251.4 354 244.8 356.9C238.3 359.6 230.4 361 221.4 361Z" fill="white"/>
<path d="M284.9 358.2V249.3H305.6V358.2H284.9ZM302.7 267.2V249.3H350.9V267.2H302.7ZM302.7 311.8V293.9H348.2V311.8H302.7ZM302.7 358.2V340.3H352.1V358.2H302.7Z" fill="white"/>
<path d="M373.8 358.8V248.6H395V358.8H373.8ZM392 358.8V339.1H414.5C420.1 339.1 425.1 338.2 429.5 336.5C433.9 334.8 437.7 332.3 440.8 329.1C443.9 325.9 446.3 322.2 448 317.8C449.6 313.5 450.5 308.7 450.5 303.4C450.5 298 449.7 293.2 448 288.9C446.4 284.6 444 280.9 440.8 277.8C437.7 274.7 433.9 272.4 429.5 270.7C425.1 269.1 420.1 268.2 414.5 268.2H392V248.5H413.2C423 248.5 431.6 249.9 438.9 252.8C446.2 255.7 452.3 259.6 457.2 264.7C462.1 269.7 465.8 275.4 468.2 281.9C470.6 288.3 471.9 295 471.9 301.8V305.1C471.9 311.7 470.7 318.2 468.2 324.6C465.8 331 462.1 336.8 457.2 341.9C452.3 347 446.2 351.1 438.9 354.2C431.6 357.3 423 358.8 413.2 358.8H392Z" fill="white"/>
<path fill-rule="evenodd" clip-rule="evenodd" d="M166.5 161.4C166.5 167.8 167 174.1 167.9 180.4L169.9 193.9C168.1 194.2 166.4 194.4 164.5 194.4C162.6 194.4 160.9 194.2 159.1 193.9L161.1 180.4C162 174.1 162.5 167.8 162.5 161.4V133C163.2 133 163.9 132.9 164.6 132.9C165.3 132.9 166 132.9 166.7 133V161.4H166.5ZM145.8 188.2L153.8 172.6C154.4 171.4 154.7 170.1 154.7 168.8V134.5C142.5 138.6 133.6 150.1 133.6 163.7C133.7 173.7 138.5 182.6 145.8 188.2ZM174.2 168.8C174.2 170.1 174.5 171.4 175.1 172.6L183.1 188.2C190.5 182.6 195.2 173.7 195.2 163.7C195.2 150.1 186.4 138.6 174.1 134.5V168.8H174.2Z" fill="white"/>
<path d="M385 153.7V153H388.4V153.7H385ZM386.3 157.4V153.5H387V157.4H386.3ZM389.1 157.4V153.1H389.8V157.4H389.1ZM391.2 157.4L389.3 153.1H390.1L391.4 156.3L392.7 153.1H393.5L391.6 157.4H391.2ZM392.9 157.4V153.1H393.6V157.4H392.9Z" fill="white"/>
<path d="M230.5 144.9C219 144.9 210.6 153.1 210.6 164.5V164.9C210.6 176.4 218.8 184.5 230.5 184.5C242.2 184.5 250.3 176.4 250.3 164.8V164.4C250.3 152.9 242.1 144.9 230.5 144.9ZM218.7 164.5C218.7 156.3 223.2 151.2 230.5 151.2C237.8 151.2 242.2 156.4 242.2 164.5V164.9C242.2 173 237.6 178.3 230.6 178.3C223.6 178.3 218.7 172.8 218.7 165V164.5Z" fill="white"/>
<path d="M286.4 143.4C285.1 143 284.1 142.9 282.5 142.9C276.3 142.9 272.7 146.4 272.7 152.6V155.7H261.9V152.3C261.9 149.2 263.8 148.5 265.3 148.5C266.5 148.5 267.5 148.8 268.1 149C268.2 149 268.3 149 268.4 149C268.5 148.9 268.5 148.9 268.5 148.8V143.8C268.5 143.7 268.4 143.6 268.3 143.5C267 143.1 266 143 264.5 143C258.2 143 254.7 146.4 254.7 152.7V183.8C254.7 184 254.8 184.1 255 184.1H261.5C261.7 184.1 261.8 184 261.8 183.8V161H272.6V183.6C272.6 183.8 272.7 183.9 272.9 183.9H279.4C279.6 183.9 279.7 183.8 279.7 183.6V161H285.8C286 161 286.1 160.9 286.1 160.7V155.9C286.1 155.7 286 155.6 285.8 155.6H279.7V152.3C279.7 149.2 281.6 148.5 283.1 148.5C284.4 148.5 285.4 148.8 286 149C286.1 149 286.2 149 286.3 149C286.4 149 286.4 148.9 286.4 148.8V143.8C286.6 143.6 286.6 143.5 286.4 143.4Z" fill="white"/>
<path d="M305.7 160.8C299.1 159.9 297.9 158.4 297.9 155.5C297.9 152.6 300.3 150.8 304.3 150.8C308.7 150.8 310.8 152.4 311.5 156.2C311.5 156.3 311.6 156.4 311.8 156.4H318.4C318.5 156.4 318.6 156.4 318.6 156.3C318.7 156.2 318.7 156.2 318.7 156.1C317.9 148.7 313 144.8 304.3 144.8C296.2 144.8 290.5 149.4 290.5 156C290.5 162.6 294.4 166.1 304.4 167.4C311.1 168.5 312.2 170 312.2 172.9C312.2 176.2 309.4 178.4 305.2 178.4C298.7 178.4 297.3 175.2 296.9 171.7C296.9 171.6 296.8 171.4 296.6 171.4H289.7C289.6 171.4 289.5 171.4 289.5 171.5C289.5 171.6 289.4 171.6 289.4 171.7C289.8 177.4 292.9 184.3 305.2 184.3C313.6 184.3 319.7 179.2 319.7 172.3C319.8 164.4 314.4 162 305.7 160.8Z" fill="white"/>
<path d="M347.6 158.4C345.2 156.2 341.9 155 338.1 155C329.6 155 323.7 161 323.7 169.6V170C323.7 178.6 329.6 184.4 338.3 184.4C345.8 184.4 350.7 181 351.6 175.1C351.6 175 351.6 174.9 351.5 174.9C351.4 174.8 351.4 174.8 351.3 174.8H345C344.9 174.8 344.7 174.9 344.7 175C344.2 177.7 342.1 179 338.5 179C334 179 331.3 176.3 331 171.4H351.4C351.6 171.4 351.7 171.3 351.7 171.1V169.2C351.7 164.6 350.3 160.9 347.6 158.4ZM331.2 166.6C331.9 162.6 334.4 160.3 338.1 160.3C342.1 160.3 344.3 162.4 344.6 166.6H331.2Z" fill="white"/>
<path d="M384.1 173.1C384 173 384 173 383.9 173H377.9C377.7 173 377.6 173.1 377.6 173.3C377.3 176.7 374.7 179 371.1 179C366.3 179 363.6 175.7 363.6 170.1V169.7C363.6 164.3 366.5 160.9 371 160.9C374.6 160.9 376.7 162.6 377.2 165.9C377.2 166 377.3 166.2 377.5 166.2H383.8C383.9 166.2 384 166.2 384 166.1C384.1 166 384.1 166 384.1 165.9C383.4 159.1 378.6 155.2 370.9 155.2C362.4 155.2 356.3 161.4 356.3 169.9V170.3C356.3 178.9 362.2 184.7 370.9 184.7C378.5 184.7 383.8 180.3 384.3 173.5C384.2 173.3 384.2 173.2 384.1 173.1Z" fill="white"/>
<defs>
<linearGradient id="paint0_linear_534_188" x1="259.999" y1="592.843" x2="259.999" y2="87.4315" gradientUnits="userSpaceOnUse">
<stop stop-color="#236262"/>
<stop offset="1" stop-color="#60B47F"/>
</linearGradient>
<linearGradient id="paint1_linear_534_188" x1="259.999" y1="673.499" x2="259.999" y2="236.15" gradientUnits="userSpaceOnUse">
<stop stop-color="#60B47F"/>
<stop offset="1" stop-color="#236262"/>
</linearGradient>
<linearGradient id="paint2_linear_534_188" x1="260" y1="185.698" x2="260" y2="464.576" gradientUnits="userSpaceOnUse">
<stop stop-color="#60B47F"/>
<stop offset="1" stop-color="#236262"/>
</linearGradient>
</defs>
</svg>
