<svg width="520" height="600" viewBox="0 0 520 600" fill="none" xmlns="http://www.w3.org/2000/svg">
<path d="M0 167.2V432.7C0 443.4 5.7 453.3 15 458.7L245 591.5C254.3 596.9 265.7 596.9 275 591.5L505 458.7C514.3 453.3 520 443.4 520 432.7V167.2C520 156.5 514.3 146.6 505 141.2L275 8.50001C265.7 3.10001 254.3 3.10001 245 8.50001L15 141.2C5.7 146.6 0 156.5 0 167.2Z" fill="url(#paint0_linear_534_267)"/>
<path d="M31 185.1V414.9C31 425.6 36.7 435.5 46 440.9L245 555.8C254.3 561.2 265.7 561.2 275 555.8L474 440.9C483.3 435.5 489 425.6 489 414.9V185.1C489 174.4 483.3 164.5 474 159.1L275 44.3C265.7 38.9 254.3 38.9 245 44.3L46 159.1C36.7 164.5 31 174.4 31 185.1Z" fill="url(#paint1_linear_534_267)"/>
<path d="M520 222.1H0V391.7H520V222.1Z" fill="url(#paint2_linear_534_267)"/>
<path d="M246.5 464.7L247.5 470.4L259.1 466.9L246.5 464.7Z" fill="white"/>
<path d="M258.6 456.4L254.2 458.8L264.4 465.4L258.6 456.4Z" fill="white"/>
<path d="M266.9 463.9L277.3 461.5L274.4 458L266.9 463.9L277.3 461.5L266.9 463.9Z" fill="white"/>
<path d="M257.9 455.4C255.2 455.4 253 453.2 253 450.5C253 447.8 255.2 445.6 257.9 445.6C260.6 445.6 262.8 447.8 262.8 450.5C262.8 453.2 260.6 455.4 257.9 455.4ZM257.9 448.2C256.6 448.2 255.6 449.2 255.6 450.5C255.6 451.8 256.6 452.8 257.9 452.8C259.2 452.8 260.2 451.8 260.2 450.5C260.3 449.2 259.2 448.2 257.9 448.2Z" fill="white"/>
<path d="M245.9 495.2C243.2 495.2 241 493 241 490.3C241 487.6 243.2 485.4 245.9 485.4C248.6 485.4 250.8 487.6 250.8 490.3C250.8 493 248.6 495.2 245.9 495.2ZM245.9 488C244.6 488 243.6 489 243.6 490.3C243.6 491.6 244.6 492.6 245.9 492.6C247.2 492.6 248.2 491.6 248.2 490.3C248.3 489.1 247.2 488 245.9 488Z" fill="white"/>
<path d="M297.6 465.8C294.9 465.8 292.7 463.6 292.7 460.9C292.7 458.2 294.9 456 297.6 456C300.3 456 302.5 458.2 302.5 460.9C302.5 463.6 300.3 465.8 297.6 465.8ZM297.6 458.6C296.3 458.6 295.3 459.6 295.3 460.9C295.3 462.2 296.3 463.2 297.6 463.2C298.9 463.2 299.9 462.2 299.9 460.9C299.9 459.7 298.9 458.6 297.6 458.6Z" fill="white"/>
<path d="M270.3 527.1C267.6 527.1 265.4 524.9 265.4 522.2C265.4 519.5 267.6 517.3 270.3 517.3C273 517.3 275.2 519.5 275.2 522.2C275.1 524.9 272.9 527.1 270.3 527.1ZM270.3 519.9C269 519.9 268 520.9 268 522.2C268 523.5 269 524.5 270.3 524.5C271.6 524.5 272.6 523.5 272.6 522.2C272.6 520.9 271.5 519.9 270.3 519.9Z" fill="white"/>
<path d="M277.8 428C275.1 428 272.9 425.8 272.9 423.1C272.9 420.4 275.1 418.2 277.8 418.2C280.5 418.2 282.7 420.4 282.7 423.1C282.7 425.8 280.5 428 277.8 428ZM277.8 420.8C276.5 420.8 275.5 421.8 275.5 423.1C275.5 424.4 276.5 425.4 277.8 425.4C279.1 425.4 280.1 424.4 280.1 423.1C280.1 421.8 279.1 420.8 277.8 420.8Z" fill="white"/>
<path d="M274.4 426.6L260.8 446.6C261.3 446.9 261.7 447.4 262 447.9L275.8 427.6C275.3 427.3 274.8 427 274.4 426.6Z" fill="white"/>
<path d="M233.2 533.4C230.5 533.4 228.3 531.2 228.3 528.5C228.3 525.8 230.5 523.6 233.2 523.6C235.9 523.6 238.1 525.8 238.1 528.5C238.1 531.2 235.9 533.4 233.2 533.4ZM233.2 526.2C231.9 526.2 230.9 527.2 230.9 528.5C230.9 529.8 231.9 530.8 233.2 530.8C234.5 530.8 235.5 529.8 235.5 528.5C235.5 527.2 234.5 526.2 233.2 526.2Z" fill="white"/>
<path d="M237.9 527.2L266.1 524.7C265.8 524.2 265.6 523.6 265.5 523.1L237.1 525.7C237.4 526 237.7 526.6 237.9 527.2Z" fill="white"/>
<path d="M235.9 524.5L245 495.1C244.4 495 243.9 494.8 243.4 494.5L234.3 523.8C234.9 524 235.5 524.2 235.9 524.5Z" fill="white"/>
<path d="M259.2 445.8V443C259.2 434.3 265.2 427 273.2 425C273 424.4 272.8 423.8 272.8 423.2C272.8 423 272.8 422.7 272.9 422.5C263.6 424.7 256.6 433.1 256.6 443V445.9C257 445.8 257.4 445.7 257.9 445.7C258.4 445.6 258.8 445.7 259.2 445.8Z" fill="white"/>
<path d="M282.6 422.4C282.6 422.6 282.7 422.9 282.7 423.1C282.7 423.7 282.6 424.4 282.3 424.9C290.4 426.9 296.3 434.2 296.3 442.9V456.2C296.7 456.1 297.1 456 297.6 456C298 456 298.5 456.1 298.9 456.2V443C298.9 433 291.9 424.6 282.6 422.4Z" fill="white"/>
<path d="M266 524.6L261.8 528.8C258.3 532.3 253.6 534.2 248.7 534.2C244.7 534.2 240.8 532.9 237.7 530.5C237.3 531.3 236.8 532 236.1 532.5C239.7 535.2 244.1 536.7 248.8 536.7C254.4 536.7 259.7 534.5 263.7 530.5L267.9 526.3C267 525.9 266.4 525.3 266 524.6Z" fill="white"/>
<path d="M243.5 494.6C242.8 494.2 242.1 493.5 241.7 492.8L233.8 500.7C227.2 507.3 225.9 517.1 229.8 525C230.4 524.4 231.2 524 232 523.8C228.6 516.9 229.8 508.2 235.5 502.5L243.5 494.6Z" fill="white"/>
<path d="M296.3 465.6V478C296.3 481.1 295.6 484 294.2 486.6C293.4 482.5 291.4 478.8 288.4 475.8C287.7 475.1 287 474.5 286.2 473.9V442.9C286.2 438.2 282.4 434.4 277.7 434.4C273 434.4 269.2 438.2 269.2 442.9V453.3C269.2 454 269.8 454.6 270.5 454.6C271.2 454.6 271.8 454 271.8 453.3V443C271.8 439.7 274.5 437.1 277.7 437.1C281 437.1 283.6 439.8 283.6 443V472.4C280.5 470.7 277 469.8 273.4 469.8C272.8 469.8 272.3 469.8 271.7 469.9V468.8C271.7 468.1 271.1 467.5 270.4 467.5C269.7 467.5 269.1 468.1 269.1 468.8V471.3V478.2C269.1 480.7 270.2 483.1 272.2 484.7C273.7 485.9 275.6 486.6 277.5 486.7C278.6 487.8 279.2 489.3 279.2 490.9C279.2 492.5 278.6 494 277.5 495.1L275.9 496.7C271.2 496.3 266.8 494.1 263.6 490.5C260.7 487.2 259 482.9 258.9 478.4V469.3C258.9 468.6 258.3 468 257.6 468C256.9 468 256.3 468.6 256.3 469.3V477.9L248 486.2C248.7 486.6 249.4 487.2 249.8 488L256.6 481.2C257.1 484.8 258.6 488.3 260.9 491.2L242.4 509.7C240.8 511.3 239.9 513.4 239.9 515.7C239.9 518 240.8 520.1 242.4 521.7C244 523.3 246.1 524.2 248.4 524.2C250.7 524.2 252.8 523.3 254.4 521.7L277.3 498.8L279.3 496.8C280.9 495.2 281.8 493.1 281.8 490.8C281.8 488.5 280.9 486.4 279.3 484.8C279.1 484.6 278.9 484.5 278.7 484.3C277.2 483.1 275.3 482.4 273.4 482.3C272.3 481.2 271.6 479.7 271.6 478.1V472.3C276 471.9 280.4 473.1 284 475.6C284.9 476.2 285.7 476.9 286.4 477.6C289.8 481 291.7 485.5 291.8 490.3V490.7C291.8 495.7 289.9 500.3 286.4 503.8L272.4 517.8C273.2 518.2 273.8 518.8 274.2 519.6L288.2 505.6C292.2 501.6 294.4 496.3 294.4 490.7C294.4 490.7 294.4 490.7 294.4 490.6C297.2 486.9 298.7 482.6 298.7 477.9V465.5C298.3 465.6 297.9 465.7 297.4 465.7C297.2 465.8 296.7 465.7 296.3 465.6ZM252.9 519.8C251.8 520.9 250.3 521.5 248.7 521.5C247.1 521.5 245.6 520.9 244.5 519.8C243.4 518.7 242.8 517.2 242.8 515.6C242.8 514 243.4 512.5 244.5 511.4L262.9 493C265.9 496 269.7 498 273.9 498.8L252.9 519.8Z" fill="white"/>
<path d="M291.6 486.7C291.4 485.6 291 484.5 290.6 483.5L272 477C271.9 477 271.9 477 271.8 477V478C271.8 478.3 271.8 478.5 271.9 478.7L290.5 485.2L272 517.7C272.2 517.8 272.5 517.9 272.7 518.1L272.6 518L275.4 515.2L291.6 486.7Z" fill="white"/>
<path d="M277.7 486.6C277.4 486.5 277.2 486.5 276.9 486.5L271 494.3L259.2 472.2V475.8L269.3 494.6C270.2 495.1 271.1 495.4 272.1 495.7L278.4 487.4C278.2 487.1 278 486.8 277.7 486.6Z" fill="white"/>
<path d="M294.3 457.4L286.3 450.3V452.6L293.3 458.8C293.5 458.3 293.8 457.8 294.3 457.4Z" fill="white"/>
<path d="M294 464.2L287.6 475C287.9 475.3 288.2 475.5 288.5 475.8C288.6 475.9 288.7 476.1 288.9 476.2L295.5 465.2C294.9 465 294.4 464.6 294 464.2Z" fill="white"/>
<path d="M116.5 361C106.7 361 98.1 359.3 90.9 355.9C83.7 352.5 77.7 347.9 73 342.2C68.3 336.5 64.8 330.4 62.5 323.9C60.2 317.4 59.1 311.1 59.1 305V301.7C59.1 295 60.3 288.4 62.7 281.8C65.1 275.2 68.7 269.2 73.5 263.8C78.3 258.4 84.3 254.1 91.5 250.9C98.7 247.7 107 246.1 116.6 246.1C126.1 246.1 134.5 247.7 141.7 250.9C148.9 254.1 154.9 258.4 159.8 263.8C164.6 269.2 168.2 275.2 170.6 281.8C173 288.4 174.2 295.1 174.2 301.7V305C174.2 311.1 173 317.4 170.7 323.9C168.4 330.4 164.8 336.5 160.1 342.2C155.4 347.9 149.4 352.4 142.2 355.9C134.9 359.3 126.3 361 116.5 361ZM116.5 341.4C122.1 341.4 127.1 340.4 131.6 338.4C136.1 336.4 139.9 333.7 143 330.1C146.1 326.6 148.5 322.5 150.2 318C151.8 313.5 152.7 308.7 152.7 303.6C152.7 298.2 151.9 293.3 150.2 288.7C148.5 284.1 146.1 280.1 143 276.7C139.9 273.3 136.1 270.6 131.7 268.7C127.3 266.8 122.3 265.9 116.7 265.9C111.2 265.9 106.3 266.8 101.8 268.7C97.3 270.6 93.5 273.2 90.4 276.7C87.3 280.1 84.9 284.1 83.2 288.7C81.6 293.3 80.7 298.2 80.7 303.6C80.7 308.7 81.5 313.5 83.2 318C84.8 322.5 87.2 326.6 90.4 330.1C93.5 333.6 97.3 336.4 101.8 338.4C106.1 340.4 111 341.4 116.5 341.4Z" fill="white"/>
<path d="M230.8 361C221.3 361 213.1 359.5 206.5 356.4C199.8 353.3 194.8 349.1 191.4 343.6C188 338.2 186.3 332 186.3 325.2H207C207 328.1 207.8 330.9 209.4 333.6C211 336.3 213.6 338.5 217.1 340.2C220.6 341.9 225.2 342.7 230.9 342.7C236.2 342.7 240.5 342 244 340.5C247.5 339 250 337 251.8 334.6C253.5 332.2 254.4 329.4 254.4 326.3C254.4 322.5 252.8 319.5 249.5 317.1C246.2 314.8 241.1 313.3 234.1 312.7L224.6 311.8C214.2 310.9 205.8 307.6 199.6 302C193.4 296.4 190.3 288.9 190.3 279.7C190.3 272.7 191.9 266.7 195.2 261.7C198.5 256.7 203.1 252.8 209 250.1C214.9 247.4 221.9 246 229.8 246C238.1 246 245.2 247.4 251.2 250.3C257.2 253.2 261.8 257.2 265.1 262.5C268.3 267.7 269.9 273.9 269.9 280.9H249C249 278 248.3 275.3 246.9 272.8C245.5 270.3 243.4 268.2 240.5 266.6C237.6 265 234 264.2 229.6 264.2C225.4 264.2 222 264.9 219.2 266.4C216.5 267.8 214.4 269.7 213 272.1C211.6 274.4 210.9 277 210.9 279.8C210.9 283.2 212.1 286.1 214.6 288.7C217.1 291.2 221 292.7 226.4 293.1L235.8 294C243.7 294.6 250.5 296.2 256.3 298.9C262.1 301.6 266.7 305.2 270 309.8C273.3 314.4 274.9 319.9 274.9 326.4C274.9 333.3 273.1 339.3 269.5 344.5C265.9 349.7 260.8 353.8 254.2 356.7C247.7 359.6 239.8 361 230.8 361Z" fill="white"/>
<path d="M294.3 358.2V249.3H315V358.2H294.3ZM312.1 267.2V249.3H360.3V267.2H312.1ZM312.1 311.8V293.9H357.6V311.8H312.1ZM312.1 358.2V340.3H361.5V358.2H312.1Z" fill="white"/>
<path d="M383.2 358.2V248.6H404.4V358.3H383.2V358.2ZM401.4 324.8V306.5H422.6C426.8 306.5 430.3 305.7 433.3 304C436.2 302.3 438.5 300 440.1 297C441.7 294 442.5 290.6 442.5 286.9C442.5 282.9 441.7 279.4 440.1 276.5C438.5 273.5 436.2 271.2 433.3 269.6C430.4 268 426.8 267.1 422.6 267.1H401.4V248.8H420.8C429.9 248.8 437.7 250.3 444.1 253.3C450.5 256.3 455.4 260.5 458.8 266.1C462.2 271.6 463.9 278.2 463.9 285.9V288.3C463.9 295.8 462.2 302.3 458.8 307.8C455.4 313.4 450.5 317.6 444.1 320.6C437.7 323.6 429.9 325.1 420.8 325.1H401.4V324.8Z" fill="white"/>
<path fill-rule="evenodd" clip-rule="evenodd" d="M166.5 161.4C166.5 167.8 167 174.1 167.9 180.4L169.9 193.9C168.1 194.2 166.4 194.4 164.5 194.4C162.6 194.4 160.9 194.2 159.1 193.9L161.1 180.4C162 174.1 162.5 167.8 162.5 161.4V133C163.2 133 163.9 132.9 164.6 132.9C165.3 132.9 166 132.9 166.7 133V161.4H166.5ZM145.8 188.2L153.8 172.6C154.4 171.4 154.7 170.1 154.7 168.8V134.5C142.5 138.6 133.6 150.1 133.6 163.7C133.7 173.7 138.5 182.6 145.8 188.2ZM174.2 168.8C174.2 170.1 174.5 171.4 175.1 172.6L183.1 188.2C190.5 182.6 195.2 173.7 195.2 163.7C195.2 150.1 186.4 138.6 174.1 134.5V168.8H174.2Z" fill="white"/>
<path d="M385 153.7V153H388.4V153.7H385ZM386.3 157.4V153.5H387V157.4H386.3ZM389.1 157.4V153.1H389.8V157.4H389.1ZM391.2 157.4L389.3 153.1H390.1L391.4 156.3L392.7 153.1H393.5L391.6 157.4H391.2ZM392.9 157.4V153.1H393.6V157.4H392.9Z" fill="white"/>
<path d="M230.5 144.9C219 144.9 210.6 153.1 210.6 164.5V164.9C210.6 176.4 218.8 184.5 230.5 184.5C242.2 184.5 250.3 176.4 250.3 164.8V164.4C250.3 152.9 242.1 144.9 230.5 144.9ZM218.7 164.5C218.7 156.3 223.2 151.2 230.5 151.2C237.8 151.2 242.2 156.4 242.2 164.5V164.9C242.2 173 237.6 178.3 230.6 178.3C223.6 178.3 218.7 172.8 218.7 165V164.5Z" fill="white"/>
<path d="M286.4 143.4C285.1 143 284.1 142.9 282.5 142.9C276.3 142.9 272.7 146.4 272.7 152.6V155.7H261.9V152.3C261.9 149.2 263.8 148.5 265.3 148.5C266.5 148.5 267.5 148.8 268.1 149C268.2 149 268.3 149 268.4 149C268.5 148.9 268.5 148.9 268.5 148.8V143.8C268.5 143.7 268.4 143.6 268.3 143.5C267 143.1 266 143 264.5 143C258.2 143 254.7 146.4 254.7 152.7V183.8C254.7 184 254.8 184.1 255 184.1H261.5C261.7 184.1 261.8 184 261.8 183.8V161H272.6V183.6C272.6 183.8 272.7 183.9 272.9 183.9H279.4C279.6 183.9 279.7 183.8 279.7 183.6V161H285.8C286 161 286.1 160.9 286.1 160.7V155.9C286.1 155.7 286 155.6 285.8 155.6H279.7V152.3C279.7 149.2 281.6 148.5 283.1 148.5C284.4 148.5 285.4 148.8 286 149C286.1 149 286.2 149 286.3 149C286.4 149 286.4 148.9 286.4 148.8V143.8C286.6 143.6 286.6 143.5 286.4 143.4Z" fill="white"/>
<path d="M305.7 160.8C299.1 159.9 297.9 158.4 297.9 155.5C297.9 152.6 300.3 150.8 304.3 150.8C308.7 150.8 310.8 152.4 311.5 156.2C311.5 156.3 311.6 156.4 311.8 156.4H318.4C318.5 156.4 318.6 156.4 318.6 156.3C318.7 156.2 318.7 156.2 318.7 156.1C317.9 148.7 313 144.8 304.3 144.8C296.2 144.8 290.5 149.4 290.5 156C290.5 162.6 294.4 166.1 304.4 167.4C311.1 168.5 312.2 170 312.2 172.9C312.2 176.2 309.4 178.4 305.2 178.4C298.7 178.4 297.3 175.2 296.9 171.7C296.9 171.6 296.8 171.4 296.6 171.4H289.7C289.6 171.4 289.5 171.4 289.5 171.5C289.5 171.6 289.4 171.6 289.4 171.7C289.8 177.4 292.9 184.3 305.2 184.3C313.6 184.3 319.7 179.2 319.7 172.3C319.8 164.4 314.4 162 305.7 160.8Z" fill="white"/>
<path d="M347.6 158.4C345.2 156.2 341.9 155 338.1 155C329.6 155 323.7 161 323.7 169.6V170C323.7 178.6 329.6 184.4 338.3 184.4C345.8 184.4 350.7 181 351.6 175.1C351.6 175 351.6 174.9 351.5 174.9C351.4 174.8 351.4 174.8 351.3 174.8H345C344.9 174.8 344.7 174.9 344.7 175C344.2 177.7 342.1 179 338.5 179C334 179 331.3 176.3 331 171.4H351.4C351.6 171.4 351.7 171.3 351.7 171.1V169.2C351.7 164.6 350.3 160.9 347.6 158.4ZM331.2 166.6C331.9 162.6 334.4 160.3 338.1 160.3C342.1 160.3 344.3 162.4 344.6 166.6H331.2Z" fill="white"/>
<path d="M384.1 173.1C384 173 384 173 383.9 173H377.9C377.7 173 377.6 173.1 377.6 173.3C377.3 176.7 374.7 179 371.1 179C366.3 179 363.6 175.7 363.6 170.1V169.7C363.6 164.3 366.5 160.9 371 160.9C374.6 160.9 376.7 162.6 377.2 165.9C377.2 166 377.3 166.2 377.5 166.2H383.8C383.9 166.2 384 166.2 384 166.1C384.1 166 384.1 166 384.1 165.9C383.4 159.1 378.6 155.2 370.9 155.2C362.4 155.2 356.3 161.4 356.3 169.9V170.3C356.3 178.9 362.2 184.7 370.9 184.7C378.5 184.7 383.8 180.3 384.3 173.5C384.2 173.3 384.2 173.2 384.1 173.1Z" fill="white"/>
<defs>
<linearGradient id="paint0_linear_534_267" x1="259.999" y1="592.843" x2="259.999" y2="87.4315" gradientUnits="userSpaceOnUse">
<stop stop-color="#37693B"/>
<stop offset="1" stop-color="#339933"/>
</linearGradient>
<linearGradient id="paint1_linear_534_267" x1="259.999" y1="673.499" x2="259.999" y2="236.15" gradientUnits="userSpaceOnUse">
<stop stop-color="#339933"/>
<stop offset="1" stop-color="#37693B"/>
</linearGradient>
<linearGradient id="paint2_linear_534_267" x1="260" y1="185.698" x2="260" y2="464.576" gradientUnits="userSpaceOnUse">
<stop stop-color="#339933"/>
<stop offset="1" stop-color="#37693B"/>
</linearGradient>
</defs>
</svg>
