<svg width="520" height="600" viewBox="0 0 520 600" fill="none" xmlns="http://www.w3.org/2000/svg">
<path d="M0 167.2V432.7C0 443.4 5.7 453.3 15 458.7L245 591.5C254.3 596.9 265.7 596.9 275 591.5L505 458.7C514.3 453.3 520 443.4 520 432.7V167.2C520 156.5 514.3 146.6 505 141.2L275 8.50001C265.7 3.10001 254.3 3.10001 245 8.50001L15 141.2C5.7 146.6 0 156.5 0 167.2Z" fill="url(#paint0_linear_534_352)"/>
<path d="M31 185.1V414.9C31 425.6 36.7 435.5 46 440.9L245 555.8C254.3 561.2 265.7 561.2 275 555.8L474 440.9C483.3 435.5 489 425.6 489 414.9V185.1C489 174.4 483.3 164.5 474 159.1L275 44.3C265.7 38.9 254.3 38.9 245 44.3L46 159.1C36.7 164.5 31 174.4 31 185.1Z" fill="url(#paint1_linear_534_352)"/>
<path d="M520 222.1H0V391.7H520V222.1Z" fill="url(#paint2_linear_534_352)"/>
<path d="M76.8 361C67.2 361 58.8 359.3 51.8 356C44.7 352.6 38.9 348.2 34.3 342.6C29.7 337.1 26.2 331.1 24 324.7C21.8 318.3 20.6 312.2 20.6 306.2V303C20.6 296.5 21.8 290 24.1 283.5C26.4 277 30 271.2 34.7 265.9C39.4 260.6 45.3 256.4 52.3 253.3C59.3 250.1 67.5 248.6 76.8 248.6C86.1 248.6 94.3 250.2 101.4 253.3C108.5 256.5 114.3 260.7 119.1 265.9C123.8 271.2 127.3 277 129.7 283.5C132 290 133.2 296.5 133.2 303V306.2C133.2 312.1 132.1 318.3 129.8 324.7C127.5 331.1 124.1 337 119.4 342.6C114.8 348.1 108.9 352.6 101.9 356C94.8 359.3 86.5 361 76.8 361ZM76.8 341.7C82.2 341.7 87.2 340.7 91.5 338.8C95.9 336.9 99.6 334.2 102.7 330.7C105.8 327.2 108.1 323.3 109.7 318.9C111.3 314.5 112.1 309.8 112.1 304.8C112.1 299.5 111.3 294.7 109.6 290.2C107.9 285.7 105.6 281.8 102.5 278.4C99.4 275 95.7 272.4 91.4 270.6C87.1 268.8 82.2 267.8 76.7 267.8C71.3 267.8 66.5 268.7 62.1 270.6C57.7 272.4 54 275.1 50.9 278.4C47.8 281.8 45.5 285.7 43.9 290.2C42.3 294.7 41.5 299.5 41.5 304.8C41.5 309.8 42.3 314.5 43.9 318.9C45.5 323.3 47.8 327.3 50.9 330.7C54 334.2 57.7 336.9 62.1 338.8C66.6 340.7 71.5 341.7 76.8 341.7Z" fill="white"/>
<path d="M189.3 361C180 361 172 359.5 165.5 356.5C159 353.5 154 349.3 150.7 344C147.3 338.7 145.7 332.7 145.7 326H166C166 328.8 166.8 331.6 168.3 334.2C169.9 336.9 172.4 339 175.8 340.7C179.3 342.4 183.8 343.2 189.3 343.2C194.5 343.2 198.7 342.5 202.1 341C205.5 339.5 208 337.6 209.7 335.2C211.4 332.8 212.3 330.1 212.3 327.1C212.3 323.4 210.7 320.4 207.5 318.1C204.3 315.8 199.3 314.4 192.5 313.8L183 313C172.8 312.1 164.6 308.9 158.5 303.4C152.4 297.9 149.4 290.6 149.4 281.6C149.4 274.8 151 268.9 154.2 264C157.4 259.1 161.9 255.3 167.7 252.6C173.5 249.9 180.3 248.6 188.1 248.6C196.2 248.6 203.2 250 209.1 252.8C215 255.6 219.5 259.6 222.7 264.7C225.9 269.8 227.4 275.8 227.4 282.7H207.1C207.1 279.9 206.4 277.2 205.1 274.7C203.7 272.2 201.6 270.2 198.8 268.6C196 267 192.4 266.3 188.1 266.3C184 266.3 180.6 267 178 268.4C175.3 269.8 173.3 271.7 171.9 273.9C170.5 276.2 169.9 278.7 169.9 281.4C169.9 284.7 171.1 287.6 173.6 290.1C176 292.6 179.9 294 185.1 294.4L194.3 295.3C202 295.9 208.7 297.5 214.4 300.1C220.1 302.7 224.5 306.3 227.8 310.8C231 315.3 232.6 320.7 232.6 327C232.6 333.7 230.8 339.6 227.3 344.7C223.8 349.8 218.8 353.8 212.3 356.6C205.8 359.6 198.1 361 189.3 361Z" fill="white"/>
<path d="M268.8 358.2L241.8 251.6H263.3L285.3 344.3L279.6 340.9H294.2L287.8 344.3L305.2 255.7H323L301.4 358.2H268.8ZM332.6 358.2L309.1 255.7H327.6L347.6 344.3L341.3 340.9H355.6L350.1 344.3L369.4 251.6H389.8L365.6 358.2H332.6Z" fill="white"/>
<path d="M396 358.2L432.2 251.6H466.2L503.6 358.2H482.1L450.6 265.8L458 269H439.8L447.4 265.8L416.7 358.2H396ZM421.4 330L428 312.3H471L477.6 330H421.4Z" fill="white"/>
<path d="M299.4 506.8C299 506.8 298.6 506.7 298.2 506.6C297 506.3 296 505.5 295.4 504.5C294.8 503.4 294.6 502.2 294.9 501.1C295.2 500 296 498.9 297 498.3C298.1 497.7 299.3 497.5 300.4 497.8C301.6 498.1 302.6 498.9 303.2 499.9C303.8 501 304 502.2 303.7 503.3C303.4 504.5 302.6 505.5 301.6 506.1C301 506.6 300.2 506.8 299.4 506.8ZM299.4 500.1C299 500.1 298.6 500.2 298.3 500.4C297.8 500.7 297.4 501.2 297.3 501.7C297.1 502.3 297.2 502.9 297.5 503.4C297.8 503.9 298.3 504.3 298.8 504.4C299.4 504.6 300 504.5 300.5 504.2C301 503.9 301.4 503.4 301.5 502.9C301.7 502.3 301.6 501.7 301.3 501.2C301 500.7 300.5 500.3 300 500.2C299.8 500.1 299.6 500.1 299.4 500.1Z" fill="white"/>
<path d="M285.5 466.4C279.4 466.4 274.5 471.3 274.5 477.4C274.5 483.5 279.4 488.4 285.5 488.4C291.6 488.4 296.5 483.5 296.5 477.4C296.5 471.3 291.6 466.4 285.5 466.4ZM286 480C284.5 480.3 283.1 479.3 282.8 477.9C282.5 476.4 283.5 475 284.9 474.7C285.2 474.6 285.6 474.6 285.9 474.7V474.8C286.1 475.9 287 476.7 288.1 476.9C288.4 478.3 287.5 479.7 286 480Z" fill="white"/>
<path d="M234.5 466.4C228.4 466.4 223.5 471.3 223.5 477.4C223.5 483.5 228.4 488.4 234.5 488.4C240.6 488.4 245.5 483.5 245.5 477.4C245.5 471.3 240.6 466.4 234.5 466.4ZM235 480C233.5 480.3 232.1 479.3 231.8 477.9C231.5 476.4 232.5 475 233.9 474.7C234.2 474.6 234.6 474.6 234.9 474.7V474.8C235.1 475.9 236 476.7 237.1 476.9C237.4 478.3 236.5 479.7 235 480Z" fill="white"/>
<path d="M259.9 448.6C255.5 448.6 252 451.9 252 456.1C252 460.2 255.6 463.6 259.9 463.6C264.3 463.6 267.8 460.3 267.8 456.1C267.8 451.9 264.3 448.6 259.9 448.6ZM259.9 461.9C259.4 461.9 258.6 461 258.2 459.5C258.7 459.5 259.3 459.6 259.8 459.6C260.4 459.6 261 459.6 261.6 459.5C261.2 461 260.5 461.9 259.9 461.9ZM259.8 458C259.1 458 258.4 458 257.8 457.9C257.7 457.3 257.7 456.7 257.7 456C257.7 455.3 257.7 454.7 257.8 454.1C258.4 454 259.1 454 259.8 454C260.6 454 261.3 454.1 261.9 454.1C262 454.7 262 455.3 262 455.9C262 456.6 262 457.2 261.9 457.7C261.3 457.9 260.6 458 259.8 458ZM253.7 456C253.7 455.5 254.7 454.9 256.3 454.4C256.3 454.9 256.2 455.4 256.2 456C256.2 456.5 256.2 457.1 256.3 457.6C254.7 457.2 253.7 456.5 253.7 456ZM259.9 450.1C260.5 450.1 261.2 451 261.6 452.5C261 452.4 260.4 452.4 259.8 452.4C259.3 452.4 258.7 452.4 258.2 452.5C258.7 451 259.4 450.1 259.9 450.1ZM263.6 454.5C265.1 454.9 266 455.5 266 456C266 456.5 265.1 457.1 263.6 457.5C263.6 457 263.7 456.5 263.7 456C263.7 455.5 263.6 455 263.6 454.5ZM265.8 453.7C265.1 453.3 264.3 453.1 263.4 452.9C263.2 452.1 263 451.3 262.6 450.7C264 451.3 265.1 452.3 265.8 453.7ZM257.3 450.6C257 451.2 256.7 451.9 256.5 452.7C255.6 452.9 254.8 453.1 254.1 453.5C254.8 452.3 255.9 451.2 257.3 450.6ZM254.2 458.5C254.9 458.8 255.7 459.1 256.6 459.3C256.8 460.1 257 460.8 257.4 461.4C255.9 460.8 254.8 459.8 254.2 458.5ZM262.6 461.4C262.9 460.8 263.2 460 263.4 459.2C264.3 459 265.2 458.7 265.8 458.4C265.1 459.7 264 460.8 262.6 461.4Z" fill="white"/>
<path d="M258 500.1C257.6 500.1 257.2 499.8 257.2 499.3V495.7C257.2 495.3 257.5 494.9 258 494.9C258.4 494.9 258.8 495.2 258.8 495.7V499.3C258.8 499.8 258.4 500.1 258 500.1Z" fill="white"/>
<path d="M262 500.1C261.6 500.1 261.2 499.8 261.2 499.3V495.7C261.2 495.3 261.5 494.9 262 494.9C262.4 494.9 262.8 495.2 262.8 495.7V499.3C262.8 499.8 262.4 500.1 262 500.1Z" fill="white"/>
<path d="M273.3 512.9C273 512.9 272.8 512.8 272.6 512.6L269.6 508.1C269.4 507.7 269.5 507.3 269.8 507C270.2 506.8 270.6 506.9 270.9 507.2L273.9 511.7C274.1 512.1 274 512.5 273.7 512.8C273.6 512.9 273.5 512.9 273.3 512.9Z" fill="white"/>
<path d="M275 506.3C274.7 506.3 274.5 506.2 274.3 506L273.4 504.6C273.2 504.2 273.3 503.8 273.6 503.5C274 503.3 274.4 503.4 274.7 503.7L275.6 505.1C275.8 505.5 275.7 505.9 275.4 506.2C275.3 506.2 275.1 506.3 275 506.3Z" fill="white"/>
<path d="M282 509.1C281.7 509.1 281.5 509 281.3 508.8L278 503.9C277.8 503.5 277.9 503.1 278.2 502.8C278.6 502.6 279 502.7 279.3 503L282.6 507.9C282.8 508.3 282.7 508.7 282.4 509C282.3 509.1 282.1 509.1 282 509.1Z" fill="white"/>
<path d="M246.7 512.9C246.6 512.9 246.4 512.9 246.3 512.8C245.9 512.6 245.8 512.1 246.1 511.7L249.1 507.2C249.3 506.8 249.8 506.7 250.2 507C250.6 507.2 250.7 507.7 250.4 508.1L247.4 512.6C247.2 512.8 246.9 512.9 246.7 512.9Z" fill="white"/>
<path d="M245 506.3C244.9 506.3 244.7 506.3 244.6 506.2C244.2 506 244.1 505.5 244.4 505.1L245.3 503.7C245.5 503.3 246 503.2 246.4 503.5C246.8 503.7 246.9 504.2 246.6 504.6L245.7 506C245.5 506.2 245.3 506.3 245 506.3Z" fill="white"/>
<path d="M238 509.1C237.9 509.1 237.7 509.1 237.6 509C237.2 508.8 237.1 508.3 237.4 507.9L240.7 503C240.9 502.6 241.4 502.5 241.8 502.8C242.2 503 242.3 503.5 242 503.9L238.7 508.8C238.5 509 238.3 509.1 238 509.1Z" fill="white"/>
<path d="M234 493.2C225.3 493.2 218.1 486.1 218.1 477.3C218.1 468.6 225.2 461.4 234 461.4C242.8 461.4 249.9 468.5 249.9 477.3C249.9 486.1 242.8 493.2 234 493.2ZM234 463.1C226.1 463.1 219.7 469.5 219.7 477.4C219.7 485.3 226.1 491.7 234 491.7C241.9 491.7 248.3 485.3 248.3 477.4C248.3 469.5 241.9 463.1 234 463.1Z" fill="white"/>
<path d="M285 493.2C276.3 493.2 269.1 486.1 269.1 477.3C269.1 468.6 276.2 461.4 285 461.4C293.7 461.4 300.9 468.5 300.9 477.3C300.9 486.1 293.8 493.2 285 493.2ZM285 463.1C277.1 463.1 270.7 469.5 270.7 477.4C270.7 485.3 277.1 491.7 285 491.7C292.9 491.7 299.3 485.3 299.3 477.4C299.3 469.5 292.9 463.1 285 463.1Z" fill="white"/>
<path d="M271.2 458.3C270.8 458.3 270.5 458 270.4 457.6C270.3 457.2 270.6 456.8 271 456.7C271.1 456.7 276.9 455.7 281.6 450.7C281.9 450.4 282.4 450.4 282.7 450.7C283 451 283 451.5 282.7 451.8C277.6 457.2 271.5 458.2 271.2 458.2C271.2 458.3 271.2 458.3 271.2 458.3Z" fill="white"/>
<path d="M272.1 454.2C271.7 454.2 271.4 453.9 271.3 453.5C271.2 453.1 271.5 452.7 271.9 452.6C271.9 452.6 274.6 452.1 276.9 449.8C277.2 449.5 277.7 449.5 278 449.8C278.3 450.1 278.3 450.6 278 450.9C275.4 453.6 272.3 454.2 272.1 454.2Z" fill="white"/>
<path d="M273 450.2C272.9 450.2 272.8 450.2 272.7 450.1C272.6 450.1 272.5 450 272.4 449.9C272.3 449.8 272.2 449.6 272.2 449.3C272.2 449.1 272.3 448.9 272.4 448.8C272.7 448.5 273.2 448.5 273.5 448.8C273.6 448.9 273.7 449.1 273.7 449.3C273.7 449.4 273.7 449.5 273.6 449.6C273.6 449.7 273.5 449.8 273.4 449.9C273.3 450 273.2 450 273.2 450.1C273.2 450.2 273.1 450.2 273 450.2Z" fill="white"/>
<path d="M248.7 458.3H248.6C248.3 458.3 242.2 457.2 237.1 451.9C236.8 451.6 236.8 451.1 237.1 450.8C237.4 450.5 237.9 450.5 238.2 450.8C243 455.8 248.7 456.8 248.8 456.8C249.2 456.9 249.5 457.3 249.4 457.7C249.4 458 249.1 458.3 248.7 458.3Z" fill="white"/>
<path d="M247.8 454.2H247.7C247.6 454.2 244.4 453.7 241.8 450.9C241.5 450.6 241.5 450.1 241.8 449.8C242.1 449.5 242.6 449.5 242.9 449.8C245.1 452.2 247.8 452.6 247.9 452.6C248.3 452.7 248.6 453.1 248.5 453.5C248.5 453.9 248.1 454.2 247.8 454.2Z" fill="white"/>
<path d="M246.8 450.2C246.7 450.2 246.6 450.2 246.5 450.1C246.4 450.1 246.3 450 246.2 449.9C246.1 449.8 246 449.6 246 449.3C246 449.1 246.1 448.9 246.2 448.8C246.5 448.5 247 448.5 247.3 448.8C247.4 448.9 247.5 449.1 247.5 449.3C247.5 449.4 247.5 449.5 247.4 449.6C247.4 449.7 247.3 449.8 247.2 449.9C247.1 450 247 450 247 450.1C247 450.2 246.9 450.2 246.8 450.2Z" fill="white"/>
<path d="M221.3 506.8C220.9 506.8 220.5 506.7 220.1 506.6C218.9 506.3 217.9 505.5 217.3 504.5C216.7 503.4 216.5 502.2 216.8 501.1C217.1 500 217.9 498.9 218.9 498.3C220 497.7 221.2 497.5 222.3 497.8C223.5 498.1 224.5 498.9 225.1 499.9C225.7 501 225.9 502.2 225.6 503.3C225.3 504.5 224.5 505.5 223.5 506.1C222.9 506.6 222.1 506.8 221.3 506.8ZM221.3 500.1C220.9 500.1 220.5 500.2 220.2 500.4C219.7 500.7 219.3 501.2 219.2 501.7C219 502.3 219.1 502.9 219.4 503.4C219.7 503.9 220.2 504.3 220.7 504.4C221.3 504.6 221.9 504.5 222.4 504.2C222.9 503.9 223.3 503.4 223.4 502.9C223.6 502.3 223.5 501.7 223.2 501.2C222.9 500.7 222.4 500.3 221.9 500.2C221.7 500.1 221.5 500.1 221.3 500.1Z" fill="white"/>
<path d="M299.4 506.8C299 506.8 298.6 506.7 298.2 506.6C298 506.6 297.9 506.5 297.7 506.4C297.8 506.8 297.8 507.1 297.8 507.5C295.9 507.4 292.9 507.1 291.6 506.1C291.2 505.8 290.6 505.8 290.2 506.1C289.8 506.4 289.6 507 289.8 507.4C290.3 508.8 290.8 510.4 291 511.5C288.9 511.2 287 510.8 286.5 510.4C286.3 509.9 285.8 509.6 285.3 509.7C284.7 509.8 284.3 510.3 284.3 510.9C284.3 512.5 284.1 514.2 283.9 515.1L280.9 513.9C280.5 513.8 280.1 513.8 279.8 514C279.5 514.2 279.3 514.6 279.3 515C279.3 516.5 279.1 518.2 278.8 518.8C277.7 518.8 275.5 518.5 274.8 517.3C274.5 516.8 273.8 516.6 273.3 516.9C272.8 517.2 272.5 517.8 272.7 518.4C272.7 518.5 273.5 520.5 272.4 522.3C270.9 521.8 269.3 521.2 268.9 521C268.5 520.5 267.9 520.4 267.5 520.6C266.6 521 266.8 521.9 267 522.6C267.4 524.3 267.5 525.2 267.4 525.7C266 525.5 264.6 525 264.3 524.5C263.8 523.6 263.2 523.6 262.8 523.6C261.9 523.8 261.8 524.7 261.7 525.5C261.6 526.7 261.4 528.8 260 530.3C258.6 528.9 258.4 526.7 258.3 525.5C258.2 524.7 258.1 523.8 257.2 523.6C256.8 523.5 256.2 523.6 255.7 524.5C255.4 525 254 525.5 252.6 525.7C252.5 525.3 252.6 524.4 253 522.6C253.2 521.9 253.4 521 252.5 520.6C252.1 520.4 251.5 520.5 251.1 521C250.7 521.3 249.1 521.9 247.6 522.3C246.6 520.6 247.3 518.5 247.3 518.4C247.5 517.8 247.3 517.2 246.7 516.9C246.2 516.6 245.5 516.8 245.2 517.3C244.5 518.5 242.3 518.8 241.2 518.8C240.9 518.2 240.7 516.5 240.7 515C240.7 514.6 240.5 514.2 240.2 514C239.9 513.8 239.5 513.7 239.1 513.9L236.1 515.1C235.9 514.2 235.7 512.5 235.7 510.9C235.7 510.3 235.3 509.8 234.7 509.7C234.2 509.6 233.7 509.9 233.5 510.4C233 510.8 231.1 511.2 229 511.5C229.2 510.4 229.7 508.8 230.2 507.4C230.4 506.9 230.2 506.4 229.8 506.1C229.4 505.8 228.8 505.8 228.4 506.1C227.1 507.1 224.1 507.4 222.2 507.5C222.2 507.2 222.3 506.9 222.3 506.6C222 506.7 221.7 506.7 221.4 506.7C221 506.7 220.6 506.6 220.2 506.5C220.1 506.5 220 506.4 219.9 506.4C219.8 507.3 219.8 508.2 219.9 508.8C220 509.3 220.5 509.7 221 509.7C221.5 509.7 224.5 509.8 227.1 509.1C226.7 510.7 226.3 512.3 226.5 513.1C226.6 513.6 227.2 514 227.7 514C230.1 513.8 232 513.5 233.3 513C233.5 515.5 234 517 234.9 517.5C235.2 517.7 235.6 517.7 236 517.6L238.4 516.6C238.7 520.8 240.1 521 240.6 521H240.7C241 521 242.9 521.1 244.7 520.3C244.8 521.5 245.2 522.9 246.2 524.1C246.5 524.4 247 524.6 247.4 524.5C248.6 524.1 249.6 523.8 250.3 523.5C250.1 524.9 250.1 526.5 251.1 527.4C251.3 527.6 251.7 527.7 252 527.7C252.5 527.7 254.6 527.4 256.2 526.6C256.5 528.3 257.2 530.8 259.4 532.3L259.5 532.4C259.6 532.4 259.7 532.5 259.7 532.5C259.8 532.5 259.9 532.5 259.9 532.5C260 532.5 260.1 532.5 260.1 532.5C260.1 532.5 260.1 532.5 260.2 532.5C260.3 532.5 260.4 532.5 260.4 532.4C260.4 532.4 260.5 532.4 260.5 532.3C262.7 530.7 263.4 528.3 263.7 526.6C265.3 527.4 267.3 527.7 267.9 527.7C268.2 527.7 268.6 527.6 268.8 527.4C269.8 526.5 269.8 524.9 269.6 523.5C270.3 523.8 271.3 524.1 272.5 524.5C272.9 524.6 273.4 524.5 273.7 524.1C274.8 522.9 275.2 521.5 275.2 520.3C277 521 278.9 521 279.2 521H279.3C279.8 520.9 281.2 520.8 281.5 516.6L283.9 517.6C284.2 517.7 284.6 517.7 285 517.5C285.9 517 286.4 515.5 286.6 513C287.9 513.5 289.8 513.8 292.2 514C292.8 514 293.3 513.7 293.4 513.1C293.6 512.3 293.3 510.7 292.8 509.1C295.4 509.8 298.5 509.8 298.9 509.7C299.4 509.7 299.9 509.3 300 508.8C300.1 508.2 300.1 507.4 300 506.5C299.9 506.8 299.6 506.8 299.4 506.8Z" fill="white"/>
<path d="M322.4 423.1C322.3 422.7 321.9 422.3 321.5 422.2C320.6 422 298.6 417.6 284.9 433.4C284.8 433.5 284.3 434.1 283.6 435C277.6 432.1 271 430.3 264.3 429.8C264.5 430.5 264.4 431.2 264.3 432C264.3 432.1 264.3 432.1 264.2 432.2C270.5 432.7 276.6 434.4 282.3 437.1C280.8 439.4 279.4 442.6 279.6 445.5C279.7 446.1 280.2 446.6 280.9 446.6C281.5 446.5 282 446 282 445.3C281.6 440.9 286.7 435.2 286.8 435.1C297.2 423.1 313.1 423.6 319 424.3C316.1 427.6 312 434.1 306.8 443.5C302.1 451.9 295.5 455.8 294.5 456.3L276.4 460C276.1 460.1 275.7 460.1 275.4 460.2C275.2 460.2 275.1 460.3 274.9 460.3C274.8 460.3 274.6 460.4 274.5 460.4C274.3 460.5 274 460.5 273.8 460.6C273.7 460.6 273.7 460.6 273.6 460.7C269.1 462.3 265.3 465.2 262.7 469.3C262.7 469.3 262.6 469.4 262.6 469.5C261.6 471 260.9 472.6 260.3 474.2C259.7 472.5 258.9 470.9 258 469.5C258 469.4 257.9 469.4 257.9 469.3C255.3 465.3 251.4 462.3 247 460.7C246.9 460.7 246.9 460.7 246.8 460.6C246.6 460.5 246.4 460.4 246.1 460.4C246 460.4 245.8 460.3 245.7 460.3C245.5 460.3 245.4 460.2 245.2 460.2C244.9 460.1 244.5 460 244.2 460L226.2 456.3H226.1H226C225 455.8 218.4 451.9 213.7 443.5C208.5 434.1 204.4 427.6 201.5 424.3C207.3 423.6 223.3 423.1 233.7 435.1C235.1 436.7 238.8 441.6 238.4 445.2C238.3 445.8 238.8 446.4 239.5 446.5C240.1 446.5 240.7 446.1 240.8 445.4C241.1 442.5 239.6 439.4 238.1 437C243.6 434.4 249.7 432.7 255.9 432.2C255.7 431.4 255.6 430.6 255.8 429.9C249.2 430.5 242.7 432.2 236.8 435.1C236.1 434.2 235.6 433.6 235.5 433.5C221.7 417.6 199.8 422.1 198.9 422.3C198.5 422.4 198.1 422.7 198 423.2C197.9 423.6 198 424.1 198.4 424.4C200.2 425.9 204.1 430.6 211.8 444.6C212.6 446.1 213.5 447.4 214.3 448.6C214.3 448.6 214.3 448.6 214.2 448.7C213.9 449.1 213.2 449.9 212.4 450.8C208.4 455.4 204.9 459.6 204.4 461.4C204.3 461.9 204.5 462.5 205 462.7L207.5 464C206.3 466.2 204.2 470.1 204.1 471.6C204.1 472.1 204.4 472.6 204.9 472.8C205 472.8 205.8 473 206.7 473.1C205.1 476.1 203.4 479.6 203.4 480.8C203.4 481.4 203.8 481.9 204.4 482C204.5 482 206.2 482.2 207.8 481.4C208.8 484.9 211.7 493.3 217.9 500C218.3 499.4 218.8 498.9 219.4 498.6C219.5 498.6 219.6 498.5 219.6 498.5C212.2 490.4 209.7 479.4 209.6 479.3C209.5 478.9 209.2 478.5 208.8 478.4C208.4 478.3 207.9 478.4 207.6 478.7C207.2 479.2 206.6 479.4 206.1 479.5C206.9 477.7 208.5 474.6 209.9 471.9C210.2 471.4 210.1 470.8 209.6 470.4C209.2 470 208.6 470 208.1 470.4C207.7 470.7 207.1 470.8 206.6 470.8C207.2 469.3 208.7 466.5 210 464.2C210.2 463.9 210.2 463.6 210.1 463.3C210 463 209.8 462.7 209.5 462.6L207 461.3C208.3 459.2 212.3 454.6 214.1 452.4C214.7 451.7 215.3 451.1 215.6 450.6C217.8 453.2 219.9 455.1 221.6 456.4C215.2 460.8 211.4 468 211.4 475.8C211.4 488.8 222 499.4 235 499.4C247.4 499.4 257.7 489.7 258.6 477.5C258.8 478.7 259 479.9 259 481.1C258.9 488.3 251.3 494.8 251.3 494.8C250.9 495.1 250.8 495.7 251 496.1L259.1 516.6C259.3 517.1 259.8 517.4 260.3 517.3H260.4C260.9 517.3 261.3 517 261.5 516.6L269.6 496.1C269.8 495.6 269.6 495.1 269.3 494.8C269.2 494.7 261.6 488.3 261.6 481.1C261.6 479.9 261.7 478.7 262 477.5C262.9 489.7 273.1 499.4 285.6 499.4C298.6 499.4 309.2 488.8 309.2 475.8C309.2 468 305.4 460.8 299 456.4C300.7 455.1 302.9 453.2 305 450.6C305.4 451 305.9 451.7 306.5 452.4C308.3 454.5 312.3 459.1 313.6 461.3L311.1 462.6C310.8 462.7 310.6 463 310.5 463.3C310.4 463.6 310.5 463.9 310.6 464.2C311.9 466.5 313.4 469.3 314 470.8C313.5 470.8 312.9 470.7 312.5 470.4C312.1 470.1 311.4 470.1 311 470.4C310.6 470.8 310.5 471.4 310.7 471.9C312.2 474.6 313.8 477.8 314.5 479.5C314 479.4 313.4 479.1 313 478.7C312.7 478.4 312.3 478.3 311.8 478.4C311.4 478.5 311.1 478.8 311 479.3C311 479.4 308.4 490.2 301.2 498.3C302 498.6 302.6 499 303.1 499.7C309 493.1 311.8 485 312.8 481.6C314.4 482.4 316.1 482.2 316.2 482.2C316.8 482.1 317.2 481.6 317.2 481C317.2 479.9 315.5 476.3 313.9 473.3C314.8 473.3 315.5 473.1 315.7 473C316.2 472.8 316.6 472.4 316.5 471.8C316.4 470.3 314.3 466.4 313.1 464.2L315.6 462.9C316.1 462.6 316.3 462.1 316.2 461.6C315.7 459.8 312.1 455.6 308.2 451C307.4 450.1 306.8 449.4 306.4 448.9C306.4 448.9 306.4 448.9 306.3 448.8C307.2 447.6 308 446.3 308.8 444.8C316.5 430.8 320.4 426.1 322.2 424.6C322.4 424 322.5 423.5 322.4 423.1ZM234.9 496.9C223.2 496.9 213.6 487.3 213.6 475.6C213.6 468.5 217.1 461.9 223 457.9C223.8 458.1 224.4 458.3 225.1 458.4L225.4 458.5C225.4 458.5 225.4 458.5 225.5 458.5L243.5 462.2C243.8 462.3 244.1 462.3 244.4 462.4C244.5 462.4 244.7 462.5 244.8 462.5C244.9 462.5 245.1 462.6 245.2 462.6C245.4 462.7 245.6 462.7 245.8 462.8C245.9 462.8 245.9 462.8 246 462.9C246.2 463 246.5 463.1 246.7 463.2C250.4 464.7 253.5 467.2 255.6 470.4C256 472.1 256.2 473.8 256.2 475.6C256.2 487.3 246.6 496.9 234.9 496.9ZM266.8 495.9L260 513.1L253.2 495.9C254.6 494.6 258.1 491 260 486.5C261.8 491.1 265.3 494.6 266.8 495.9ZM306.4 475.6C306.4 487.3 296.8 496.9 285.1 496.9C273.4 496.9 263.8 487.3 263.8 475.6C263.8 473.9 264 472.1 264.4 470.4C266.5 467.2 269.6 464.6 273.3 463.2C273.5 463.1 273.8 463 274 462.9C274.1 462.9 274.1 462.9 274.2 462.8C274.4 462.7 274.6 462.7 274.8 462.6C274.9 462.6 275.1 462.5 275.2 462.5C275.3 462.5 275.5 462.4 275.6 462.4C275.9 462.3 276.2 462.3 276.5 462.2L294.5 458.5C294.5 458.5 294.5 458.5 294.6 458.5H294.8C295.5 458.4 296.2 458.2 296.9 458C302.9 461.9 306.4 468.5 306.4 475.6Z" fill="white"/>
<path d="M259.9 435.3C259.5 435.3 259.1 435.2 258.7 435.1C257.5 434.8 256.5 434 255.9 433C255.3 431.9 255.1 430.7 255.4 429.6C255.7 428.4 256.5 427.4 257.5 426.8C258.6 426.2 259.8 426 260.9 426.3C262.1 426.6 263.1 427.4 263.7 428.4C264.3 429.5 264.5 430.7 264.2 431.8C263.9 432.9 263.1 434 262.1 434.6C261.4 435.1 260.6 435.3 259.9 435.3ZM259.8 428.6C259.4 428.6 259 428.7 258.7 428.9C258.2 429.2 257.8 429.7 257.7 430.2C257.5 430.8 257.6 431.4 257.9 431.9C258.5 433 259.9 433.3 260.9 432.7C261.4 432.4 261.8 431.9 261.9 431.4C262.1 430.8 262 430.2 261.7 429.7C261.4 429.2 260.9 428.8 260.4 428.7C260.2 428.6 260 428.6 259.8 428.6Z" fill="white"/>
<path d="M299.4 506.8C299 506.8 298.6 506.7 298.2 506.6C297 506.3 296 505.5 295.4 504.5C294.8 503.4 294.6 502.2 294.9 501.1C295.2 500 296 498.9 297 498.3C298.1 497.7 299.3 497.5 300.4 497.8C301.6 498.1 302.6 498.9 303.2 499.9C303.8 501 304 502.2 303.7 503.3C303.4 504.5 302.6 505.5 301.6 506.1C301 506.6 300.2 506.8 299.4 506.8ZM299.4 500.1C299 500.1 298.6 500.2 298.3 500.4C297.8 500.7 297.4 501.2 297.3 501.7C297.1 502.3 297.2 502.9 297.5 503.4C297.8 503.9 298.3 504.3 298.8 504.4C299.4 504.6 300 504.5 300.5 504.2C301 503.9 301.4 503.4 301.5 502.9C301.7 502.3 301.6 501.7 301.3 501.2C301 500.7 300.5 500.3 300 500.2C299.8 500.1 299.6 500.1 299.4 500.1Z" fill="white"/>
<path d="M285.5 466.4C279.4 466.4 274.5 471.3 274.5 477.4C274.5 483.5 279.4 488.4 285.5 488.4C291.6 488.4 296.5 483.5 296.5 477.4C296.5 471.3 291.6 466.4 285.5 466.4ZM286 480C284.5 480.3 283.1 479.3 282.8 477.9C282.5 476.4 283.5 475 284.9 474.7C285.2 474.6 285.6 474.6 285.9 474.7V474.8C286.1 475.9 287 476.7 288.1 476.9C288.4 478.3 287.5 479.7 286 480Z" fill="white"/>
<path d="M234.5 466.4C228.4 466.4 223.5 471.3 223.5 477.4C223.5 483.5 228.4 488.4 234.5 488.4C240.6 488.4 245.5 483.5 245.5 477.4C245.5 471.3 240.6 466.4 234.5 466.4ZM235 480C233.5 480.3 232.1 479.3 231.8 477.9C231.5 476.4 232.5 475 233.9 474.7C234.2 474.6 234.6 474.6 234.9 474.7V474.8C235.1 475.9 236 476.7 237.1 476.9C237.4 478.3 236.5 479.7 235 480Z" fill="white"/>
<path d="M259.9 448.6C255.5 448.6 252 451.9 252 456.1C252 460.2 255.6 463.6 259.9 463.6C264.3 463.6 267.8 460.3 267.8 456.1C267.8 451.9 264.3 448.6 259.9 448.6ZM259.9 461.9C259.4 461.9 258.6 461 258.2 459.5C258.7 459.5 259.3 459.6 259.8 459.6C260.4 459.6 261 459.6 261.6 459.5C261.2 461 260.5 461.9 259.9 461.9ZM259.8 458C259.1 458 258.4 458 257.8 457.9C257.7 457.3 257.7 456.7 257.7 456C257.7 455.3 257.7 454.7 257.8 454.1C258.4 454 259.1 454 259.8 454C260.6 454 261.3 454.1 261.9 454.1C262 454.7 262 455.3 262 455.9C262 456.6 262 457.2 261.9 457.7C261.3 457.9 260.6 458 259.8 458ZM253.7 456C253.7 455.5 254.7 454.9 256.3 454.4C256.3 454.9 256.2 455.4 256.2 456C256.2 456.5 256.2 457.1 256.3 457.6C254.7 457.2 253.7 456.5 253.7 456ZM259.9 450.1C260.5 450.1 261.2 451 261.6 452.5C261 452.4 260.4 452.4 259.8 452.4C259.3 452.4 258.7 452.4 258.2 452.5C258.7 451 259.4 450.1 259.9 450.1ZM263.6 454.5C265.1 454.9 266 455.5 266 456C266 456.5 265.1 457.1 263.6 457.5C263.6 457 263.7 456.5 263.7 456C263.7 455.5 263.6 455 263.6 454.5ZM265.8 453.7C265.1 453.3 264.3 453.1 263.4 452.9C263.2 452.1 263 451.3 262.6 450.7C264 451.3 265.1 452.3 265.8 453.7ZM257.3 450.6C257 451.2 256.7 451.9 256.5 452.7C255.6 452.9 254.8 453.1 254.1 453.5C254.8 452.3 255.9 451.2 257.3 450.6ZM254.2 458.5C254.9 458.8 255.7 459.1 256.6 459.3C256.8 460.1 257 460.8 257.4 461.4C255.9 460.8 254.8 459.8 254.2 458.5ZM262.6 461.4C262.9 460.8 263.2 460 263.4 459.2C264.3 459 265.2 458.7 265.8 458.4C265.1 459.7 264 460.8 262.6 461.4Z" fill="white"/>
<path d="M258 500.1C257.6 500.1 257.2 499.8 257.2 499.3V495.7C257.2 495.3 257.5 494.9 258 494.9C258.4 494.9 258.8 495.2 258.8 495.7V499.3C258.8 499.8 258.4 500.1 258 500.1Z" fill="white"/>
<path d="M262 500.1C261.6 500.1 261.2 499.8 261.2 499.3V495.7C261.2 495.3 261.5 494.9 262 494.9C262.4 494.9 262.8 495.2 262.8 495.7V499.3C262.8 499.8 262.4 500.1 262 500.1Z" fill="white"/>
<path d="M273.3 512.9C273 512.9 272.8 512.8 272.6 512.6L269.6 508.1C269.4 507.7 269.5 507.3 269.8 507C270.2 506.8 270.6 506.9 270.9 507.2L273.9 511.7C274.1 512.1 274 512.5 273.7 512.8C273.6 512.9 273.5 512.9 273.3 512.9Z" fill="white"/>
<path d="M275 506.3C274.7 506.3 274.5 506.2 274.3 506L273.4 504.6C273.2 504.2 273.3 503.8 273.6 503.5C274 503.3 274.4 503.4 274.7 503.7L275.6 505.1C275.8 505.5 275.7 505.9 275.4 506.2C275.3 506.2 275.1 506.3 275 506.3Z" fill="white"/>
<path d="M282 509.1C281.7 509.1 281.5 509 281.3 508.8L278 503.9C277.8 503.5 277.9 503.1 278.2 502.8C278.6 502.6 279 502.7 279.3 503L282.6 507.9C282.8 508.3 282.7 508.7 282.4 509C282.3 509.1 282.1 509.1 282 509.1Z" fill="white"/>
<path d="M246.7 512.9C246.6 512.9 246.4 512.9 246.3 512.8C245.9 512.6 245.8 512.1 246.1 511.7L249.1 507.2C249.3 506.8 249.8 506.7 250.2 507C250.6 507.2 250.7 507.7 250.4 508.1L247.4 512.6C247.2 512.8 246.9 512.9 246.7 512.9Z" fill="white"/>
<path d="M245 506.3C244.9 506.3 244.7 506.3 244.6 506.2C244.2 506 244.1 505.5 244.4 505.1L245.3 503.7C245.5 503.3 246 503.2 246.4 503.5C246.8 503.7 246.9 504.2 246.6 504.6L245.7 506C245.5 506.2 245.3 506.3 245 506.3Z" fill="white"/>
<path d="M238 509.1C237.9 509.1 237.7 509.1 237.6 509C237.2 508.8 237.1 508.3 237.4 507.9L240.7 503C240.9 502.6 241.4 502.5 241.8 502.8C242.2 503 242.3 503.5 242 503.9L238.7 508.8C238.5 509 238.3 509.1 238 509.1Z" fill="white"/>
<path d="M234 493.2C225.3 493.2 218.1 486.1 218.1 477.3C218.1 468.6 225.2 461.4 234 461.4C242.8 461.4 249.9 468.5 249.9 477.3C249.9 486.1 242.8 493.2 234 493.2ZM234 463.1C226.1 463.1 219.7 469.5 219.7 477.4C219.7 485.3 226.1 491.7 234 491.7C241.9 491.7 248.3 485.3 248.3 477.4C248.3 469.5 241.9 463.1 234 463.1Z" fill="white"/>
<path d="M285 493.2C276.3 493.2 269.1 486.1 269.1 477.3C269.1 468.6 276.2 461.4 285 461.4C293.7 461.4 300.9 468.5 300.9 477.3C300.9 486.1 293.8 493.2 285 493.2ZM285 463.1C277.1 463.1 270.7 469.5 270.7 477.4C270.7 485.3 277.1 491.7 285 491.7C292.9 491.7 299.3 485.3 299.3 477.4C299.3 469.5 292.9 463.1 285 463.1Z" fill="white"/>
<path d="M271.2 458.3C270.8 458.3 270.5 458 270.4 457.6C270.3 457.2 270.6 456.8 271 456.7C271.1 456.7 276.9 455.7 281.6 450.7C281.9 450.4 282.4 450.4 282.7 450.7C283 451 283 451.5 282.7 451.8C277.6 457.2 271.5 458.2 271.2 458.2C271.2 458.3 271.2 458.3 271.2 458.3Z" fill="white"/>
<path d="M272.1 454.2C271.7 454.2 271.4 453.9 271.3 453.5C271.2 453.1 271.5 452.7 271.9 452.6C271.9 452.6 274.6 452.1 276.9 449.8C277.2 449.5 277.7 449.5 278 449.8C278.3 450.1 278.3 450.6 278 450.9C275.4 453.6 272.3 454.2 272.1 454.2Z" fill="white"/>
<path d="M273 450.2C272.9 450.2 272.8 450.2 272.7 450.1C272.6 450.1 272.5 450 272.4 449.9C272.3 449.8 272.2 449.6 272.2 449.3C272.2 449.1 272.3 448.9 272.4 448.8C272.7 448.5 273.2 448.5 273.5 448.8C273.6 448.9 273.7 449.1 273.7 449.3C273.7 449.4 273.7 449.5 273.6 449.6C273.6 449.7 273.5 449.8 273.4 449.9C273.3 450 273.2 450 273.2 450.1C273.2 450.2 273.1 450.2 273 450.2Z" fill="white"/>
<path d="M248.7 458.3H248.6C248.3 458.3 242.2 457.2 237.1 451.9C236.8 451.6 236.8 451.1 237.1 450.8C237.4 450.5 237.9 450.5 238.2 450.8C243 455.8 248.7 456.8 248.8 456.8C249.2 456.9 249.5 457.3 249.4 457.7C249.4 458 249.1 458.3 248.7 458.3Z" fill="white"/>
<path d="M247.8 454.2H247.7C247.6 454.2 244.4 453.7 241.8 450.9C241.5 450.6 241.5 450.1 241.8 449.8C242.1 449.5 242.6 449.5 242.9 449.8C245.1 452.2 247.8 452.6 247.9 452.6C248.3 452.7 248.6 453.1 248.5 453.5C248.5 453.9 248.1 454.2 247.8 454.2Z" fill="white"/>
<path d="M246.8 450.2C246.7 450.2 246.6 450.2 246.5 450.1C246.4 450.1 246.3 450 246.2 449.9C246.1 449.8 246 449.6 246 449.3C246 449.1 246.1 448.9 246.2 448.8C246.5 448.5 247 448.5 247.3 448.8C247.4 448.9 247.5 449.1 247.5 449.3C247.5 449.4 247.5 449.5 247.4 449.6C247.4 449.7 247.3 449.8 247.2 449.9C247.1 450 247 450 247 450.1C247 450.2 246.9 450.2 246.8 450.2Z" fill="white"/>
<path d="M221.3 506.8C220.9 506.8 220.5 506.7 220.1 506.6C218.9 506.3 217.9 505.5 217.3 504.5C216.7 503.4 216.5 502.2 216.8 501.1C217.1 500 217.9 498.9 218.9 498.3C220 497.7 221.2 497.5 222.3 497.8C223.5 498.1 224.5 498.9 225.1 499.9C225.7 501 225.9 502.2 225.6 503.3C225.3 504.5 224.5 505.5 223.5 506.1C222.9 506.6 222.1 506.8 221.3 506.8ZM221.3 500.1C220.9 500.1 220.5 500.2 220.2 500.4C219.7 500.7 219.3 501.2 219.2 501.7C219 502.3 219.1 502.9 219.4 503.4C219.7 503.9 220.2 504.3 220.7 504.4C221.3 504.6 221.9 504.5 222.4 504.2C222.9 503.9 223.3 503.4 223.4 502.9C223.6 502.3 223.5 501.7 223.2 501.2C222.9 500.7 222.4 500.3 221.9 500.2C221.7 500.1 221.5 500.1 221.3 500.1Z" fill="white"/>
<path d="M299.4 506.8C299 506.8 298.6 506.7 298.2 506.6C298 506.6 297.9 506.5 297.7 506.4C297.8 506.8 297.8 507.1 297.8 507.5C295.9 507.4 292.9 507.1 291.6 506.1C291.2 505.8 290.6 505.8 290.2 506.1C289.8 506.4 289.6 507 289.8 507.4C290.3 508.8 290.8 510.4 291 511.5C288.9 511.2 287 510.8 286.5 510.4C286.3 509.9 285.8 509.6 285.3 509.7C284.7 509.8 284.3 510.3 284.3 510.9C284.3 512.5 284.1 514.2 283.9 515.1L280.9 513.9C280.5 513.8 280.1 513.8 279.8 514C279.5 514.2 279.3 514.6 279.3 515C279.3 516.5 279.1 518.2 278.8 518.8C277.7 518.8 275.5 518.5 274.8 517.3C274.5 516.8 273.8 516.6 273.3 516.9C272.8 517.2 272.5 517.8 272.7 518.4C272.7 518.5 273.5 520.5 272.4 522.3C270.9 521.8 269.3 521.2 268.9 521C268.5 520.5 267.9 520.4 267.5 520.6C266.6 521 266.8 521.9 267 522.6C267.4 524.3 267.5 525.2 267.4 525.7C266 525.5 264.6 525 264.3 524.5C263.8 523.6 263.2 523.6 262.8 523.6C261.9 523.8 261.8 524.7 261.7 525.5C261.6 526.7 261.4 528.8 260 530.3C258.6 528.9 258.4 526.7 258.3 525.5C258.2 524.7 258.1 523.8 257.2 523.6C256.8 523.5 256.2 523.6 255.7 524.5C255.4 525 254 525.5 252.6 525.7C252.5 525.3 252.6 524.4 253 522.6C253.2 521.9 253.4 521 252.5 520.6C252.1 520.4 251.5 520.5 251.1 521C250.7 521.3 249.1 521.9 247.6 522.3C246.6 520.6 247.3 518.5 247.3 518.4C247.5 517.8 247.3 517.2 246.7 516.9C246.2 516.6 245.5 516.8 245.2 517.3C244.5 518.5 242.3 518.8 241.2 518.8C240.9 518.2 240.7 516.5 240.7 515C240.7 514.6 240.5 514.2 240.2 514C239.9 513.8 239.5 513.7 239.1 513.9L236.1 515.1C235.9 514.2 235.7 512.5 235.7 510.9C235.7 510.3 235.3 509.8 234.7 509.7C234.2 509.6 233.7 509.9 233.5 510.4C233 510.8 231.1 511.2 229 511.5C229.2 510.4 229.7 508.8 230.2 507.4C230.4 506.9 230.2 506.4 229.8 506.1C229.4 505.8 228.8 505.8 228.4 506.1C227.1 507.1 224.1 507.4 222.2 507.5C222.2 507.2 222.3 506.9 222.3 506.6C222 506.7 221.7 506.7 221.4 506.7C221 506.7 220.6 506.6 220.2 506.5C220.1 506.5 220 506.4 219.9 506.4C219.8 507.3 219.8 508.2 219.9 508.8C220 509.3 220.5 509.7 221 509.7C221.5 509.7 224.5 509.8 227.1 509.1C226.7 510.7 226.3 512.3 226.5 513.1C226.6 513.6 227.2 514 227.7 514C230.1 513.8 232 513.5 233.3 513C233.5 515.5 234 517 234.9 517.5C235.2 517.7 235.6 517.7 236 517.6L238.4 516.6C238.7 520.8 240.1 521 240.6 521H240.7C241 521 242.9 521.1 244.7 520.3C244.8 521.5 245.2 522.9 246.2 524.1C246.5 524.4 247 524.6 247.4 524.5C248.6 524.1 249.6 523.8 250.3 523.5C250.1 524.9 250.1 526.5 251.1 527.4C251.3 527.6 251.7 527.7 252 527.7C252.5 527.7 254.6 527.4 256.2 526.6C256.5 528.3 257.2 530.8 259.4 532.3L259.5 532.4C259.6 532.4 259.7 532.5 259.7 532.5C259.8 532.5 259.9 532.5 259.9 532.5C260 532.5 260.1 532.5 260.1 532.5C260.1 532.5 260.1 532.5 260.2 532.5C260.3 532.5 260.4 532.5 260.4 532.4C260.4 532.4 260.5 532.4 260.5 532.3C262.7 530.7 263.4 528.3 263.7 526.6C265.3 527.4 267.3 527.7 267.9 527.7C268.2 527.7 268.6 527.6 268.8 527.4C269.8 526.5 269.8 524.9 269.6 523.5C270.3 523.8 271.3 524.1 272.5 524.5C272.9 524.6 273.4 524.5 273.7 524.1C274.8 522.9 275.2 521.5 275.2 520.3C277 521 278.9 521 279.2 521H279.3C279.8 520.9 281.2 520.8 281.5 516.6L283.9 517.6C284.2 517.7 284.6 517.7 285 517.5C285.9 517 286.4 515.5 286.6 513C287.9 513.5 289.8 513.8 292.2 514C292.8 514 293.3 513.7 293.4 513.1C293.6 512.3 293.3 510.7 292.8 509.1C295.4 509.8 298.5 509.8 298.9 509.7C299.4 509.7 299.9 509.3 300 508.8C300.1 508.2 300.1 507.4 300 506.5C299.9 506.8 299.6 506.8 299.4 506.8Z" fill="white"/>
<path d="M322.4 423.1C322.3 422.7 321.9 422.3 321.5 422.2C320.6 422 298.6 417.6 284.9 433.4C284.8 433.5 284.3 434.1 283.6 435C277.6 432.1 271 430.3 264.3 429.8C264.5 430.5 264.4 431.2 264.3 432C264.3 432.1 264.3 432.1 264.2 432.2C270.5 432.7 276.6 434.4 282.3 437.1C280.8 439.4 279.4 442.6 279.6 445.5C279.7 446.1 280.2 446.6 280.9 446.6C281.5 446.5 282 446 282 445.3C281.6 440.9 286.7 435.2 286.8 435.1C297.2 423.1 313.1 423.6 319 424.3C316.1 427.6 312 434.1 306.8 443.5C302.1 451.9 295.5 455.8 294.5 456.3L276.4 460C276.1 460.1 275.7 460.1 275.4 460.2C275.2 460.2 275.1 460.3 274.9 460.3C274.8 460.3 274.6 460.4 274.5 460.4C274.3 460.5 274 460.5 273.8 460.6C273.7 460.6 273.7 460.6 273.6 460.7C269.1 462.3 265.3 465.2 262.7 469.3C262.7 469.3 262.6 469.4 262.6 469.5C261.6 471 260.9 472.6 260.3 474.2C259.7 472.5 258.9 470.9 258 469.5C258 469.4 257.9 469.4 257.9 469.3C255.3 465.3 251.4 462.3 247 460.7C246.9 460.7 246.9 460.7 246.8 460.6C246.6 460.5 246.4 460.4 246.1 460.4C246 460.4 245.8 460.3 245.7 460.3C245.5 460.3 245.4 460.2 245.2 460.2C244.9 460.1 244.5 460 244.2 460L226.2 456.3H226.1H226C225 455.8 218.4 451.9 213.7 443.5C208.5 434.1 204.4 427.6 201.5 424.3C207.3 423.6 223.3 423.1 233.7 435.1C235.1 436.7 238.8 441.6 238.4 445.2C238.3 445.8 238.8 446.4 239.5 446.5C240.1 446.5 240.7 446.1 240.8 445.4C241.1 442.5 239.6 439.4 238.1 437C243.6 434.4 249.7 432.7 255.9 432.2C255.7 431.4 255.6 430.6 255.8 429.9C249.2 430.5 242.7 432.2 236.8 435.1C236.1 434.2 235.6 433.6 235.5 433.5C221.7 417.6 199.8 422.1 198.9 422.3C198.5 422.4 198.1 422.7 198 423.2C197.9 423.6 198 424.1 198.4 424.4C200.2 425.9 204.1 430.6 211.8 444.6C212.6 446.1 213.5 447.4 214.3 448.6C214.3 448.6 214.3 448.6 214.2 448.7C213.9 449.1 213.2 449.9 212.4 450.8C208.4 455.4 204.9 459.6 204.4 461.4C204.3 461.9 204.5 462.5 205 462.7L207.5 464C206.3 466.2 204.2 470.1 204.1 471.6C204.1 472.1 204.4 472.6 204.9 472.8C205 472.8 205.8 473 206.7 473.1C205.1 476.1 203.4 479.6 203.4 480.8C203.4 481.4 203.8 481.9 204.4 482C204.5 482 206.2 482.2 207.8 481.4C208.8 484.9 211.7 493.3 217.9 500C218.3 499.4 218.8 498.9 219.4 498.6C219.5 498.6 219.6 498.5 219.6 498.5C212.2 490.4 209.7 479.4 209.6 479.3C209.5 478.9 209.2 478.5 208.8 478.4C208.4 478.3 207.9 478.4 207.6 478.7C207.2 479.2 206.6 479.4 206.1 479.5C206.9 477.7 208.5 474.6 209.9 471.9C210.2 471.4 210.1 470.8 209.6 470.4C209.2 470 208.6 470 208.1 470.4C207.7 470.7 207.1 470.8 206.6 470.8C207.2 469.3 208.7 466.5 210 464.2C210.2 463.9 210.2 463.6 210.1 463.3C210 463 209.8 462.7 209.5 462.6L207 461.3C208.3 459.2 212.3 454.6 214.1 452.4C214.7 451.7 215.3 451.1 215.6 450.6C217.8 453.2 219.9 455.1 221.6 456.4C215.2 460.8 211.4 468 211.4 475.8C211.4 488.8 222 499.4 235 499.4C247.4 499.4 257.7 489.7 258.6 477.5C258.8 478.7 259 479.9 259 481.1C258.9 488.3 251.3 494.8 251.3 494.8C250.9 495.1 250.8 495.7 251 496.1L259.1 516.6C259.3 517.1 259.8 517.4 260.3 517.3H260.4C260.9 517.3 261.3 517 261.5 516.6L269.6 496.1C269.8 495.6 269.6 495.1 269.3 494.8C269.2 494.7 261.6 488.3 261.6 481.1C261.6 479.9 261.7 478.7 262 477.5C262.9 489.7 273.1 499.4 285.6 499.4C298.6 499.4 309.2 488.8 309.2 475.8C309.2 468 305.4 460.8 299 456.4C300.7 455.1 302.9 453.2 305 450.6C305.4 451 305.9 451.7 306.5 452.4C308.3 454.5 312.3 459.1 313.6 461.3L311.1 462.6C310.8 462.7 310.6 463 310.5 463.3C310.4 463.6 310.5 463.9 310.6 464.2C311.9 466.5 313.4 469.3 314 470.8C313.5 470.8 312.9 470.7 312.5 470.4C312.1 470.1 311.4 470.1 311 470.4C310.6 470.8 310.5 471.4 310.7 471.9C312.2 474.6 313.8 477.8 314.5 479.5C314 479.4 313.4 479.1 313 478.7C312.7 478.4 312.3 478.3 311.8 478.4C311.4 478.5 311.1 478.8 311 479.3C311 479.4 308.4 490.2 301.2 498.3C302 498.6 302.6 499 303.1 499.7C309 493.1 311.8 485 312.8 481.6C314.4 482.4 316.1 482.2 316.2 482.2C316.8 482.1 317.2 481.6 317.2 481C317.2 479.9 315.5 476.3 313.9 473.3C314.8 473.3 315.5 473.1 315.7 473C316.2 472.8 316.6 472.4 316.5 471.8C316.4 470.3 314.3 466.4 313.1 464.2L315.6 462.9C316.1 462.6 316.3 462.1 316.2 461.6C315.7 459.8 312.1 455.6 308.2 451C307.4 450.1 306.8 449.4 306.4 448.9C306.4 448.9 306.4 448.9 306.3 448.8C307.2 447.6 308 446.3 308.8 444.8C316.5 430.8 320.4 426.1 322.2 424.6C322.4 424 322.5 423.5 322.4 423.1ZM234.9 496.9C223.2 496.9 213.6 487.3 213.6 475.6C213.6 468.5 217.1 461.9 223 457.9C223.8 458.1 224.4 458.3 225.1 458.4L225.4 458.5C225.4 458.5 225.4 458.5 225.5 458.5L243.5 462.2C243.8 462.3 244.1 462.3 244.4 462.4C244.5 462.4 244.7 462.5 244.8 462.5C244.9 462.5 245.1 462.6 245.2 462.6C245.4 462.7 245.6 462.7 245.8 462.8C245.9 462.8 245.9 462.8 246 462.9C246.2 463 246.5 463.1 246.7 463.2C250.4 464.7 253.5 467.2 255.6 470.4C256 472.1 256.2 473.8 256.2 475.6C256.2 487.3 246.6 496.9 234.9 496.9ZM266.8 495.9L260 513.1L253.2 495.9C254.6 494.6 258.1 491 260 486.5C261.8 491.1 265.3 494.6 266.8 495.9ZM306.4 475.6C306.4 487.3 296.8 496.9 285.1 496.9C273.4 496.9 263.8 487.3 263.8 475.6C263.8 473.9 264 472.1 264.4 470.4C266.5 467.2 269.6 464.6 273.3 463.2C273.5 463.1 273.8 463 274 462.9C274.1 462.9 274.1 462.9 274.2 462.8C274.4 462.7 274.6 462.7 274.8 462.6C274.9 462.6 275.1 462.5 275.2 462.5C275.3 462.5 275.5 462.4 275.6 462.4C275.9 462.3 276.2 462.3 276.5 462.2L294.5 458.5C294.5 458.5 294.5 458.5 294.6 458.5H294.8C295.5 458.4 296.2 458.2 296.9 458C302.9 461.9 306.4 468.5 306.4 475.6Z" fill="white"/>
<path d="M259.9 435.3C259.5 435.3 259.1 435.2 258.7 435.1C257.5 434.8 256.5 434 255.9 433C255.3 431.9 255.1 430.7 255.4 429.6C255.7 428.4 256.5 427.4 257.5 426.8C258.6 426.2 259.8 426 260.9 426.3C262.1 426.6 263.1 427.4 263.7 428.4C264.3 429.5 264.5 430.7 264.2 431.8C263.9 432.9 263.1 434 262.1 434.6C261.4 435.1 260.6 435.3 259.9 435.3ZM259.8 428.6C259.4 428.6 259 428.7 258.7 428.9C258.2 429.2 257.8 429.7 257.7 430.2C257.5 430.8 257.6 431.4 257.9 431.9C258.5 433 259.9 433.3 260.9 432.7C261.4 432.4 261.8 431.9 261.9 431.4C262.1 430.8 262 430.2 261.7 429.7C261.4 429.2 260.9 428.8 260.4 428.7C260.2 428.6 260 428.6 259.8 428.6Z" fill="white"/>
<path fill-rule="evenodd" clip-rule="evenodd" d="M166.5 161.4C166.5 167.8 167 174.1 167.9 180.4L169.9 193.9C168.1 194.2 166.4 194.4 164.5 194.4C162.6 194.4 160.9 194.2 159.1 193.9L161.1 180.4C162 174.1 162.5 167.8 162.5 161.4V133C163.2 133 163.9 132.9 164.6 132.9C165.3 132.9 166 132.9 166.7 133V161.4H166.5ZM145.8 188.2L153.8 172.6C154.4 171.4 154.7 170.1 154.7 168.8V134.5C142.5 138.6 133.6 150.1 133.6 163.7C133.7 173.7 138.5 182.6 145.8 188.2ZM174.2 168.8C174.2 170.1 174.5 171.4 175.1 172.6L183.1 188.2C190.5 182.6 195.2 173.7 195.2 163.7C195.2 150.1 186.4 138.6 174.1 134.5V168.8H174.2Z" fill="white"/>
<path d="M385 153.7V153H388.4V153.7H385ZM386.3 157.4V153.5H387V157.4H386.3ZM389.1 157.4V153.1H389.8V157.4H389.1ZM391.2 157.4L389.3 153.1H390.1L391.4 156.3L392.7 153.1H393.5L391.6 157.4H391.2ZM392.9 157.4V153.1H393.6V157.4H392.9Z" fill="white"/>
<path d="M230.5 144.9C219 144.9 210.6 153.1 210.6 164.5V164.9C210.6 176.4 218.8 184.5 230.5 184.5C242.2 184.5 250.3 176.4 250.3 164.8V164.4C250.3 152.9 242.1 144.9 230.5 144.9ZM218.7 164.5C218.7 156.3 223.2 151.2 230.5 151.2C237.8 151.2 242.2 156.4 242.2 164.5V164.9C242.2 173 237.6 178.3 230.6 178.3C223.6 178.3 218.7 172.8 218.7 165V164.5Z" fill="white"/>
<path d="M286.4 143.4C285.1 143 284.1 142.9 282.5 142.9C276.3 142.9 272.7 146.4 272.7 152.6V155.7H261.9V152.3C261.9 149.2 263.8 148.5 265.3 148.5C266.5 148.5 267.5 148.8 268.1 149C268.2 149 268.3 149 268.4 149C268.5 148.9 268.5 148.9 268.5 148.8V143.8C268.5 143.7 268.4 143.6 268.3 143.5C267 143.1 266 143 264.5 143C258.2 143 254.7 146.4 254.7 152.7V183.8C254.7 184 254.8 184.1 255 184.1H261.5C261.7 184.1 261.8 184 261.8 183.8V161H272.6V183.6C272.6 183.8 272.7 183.9 272.9 183.9H279.4C279.6 183.9 279.7 183.8 279.7 183.6V161H285.8C286 161 286.1 160.9 286.1 160.7V155.9C286.1 155.7 286 155.6 285.8 155.6H279.7V152.3C279.7 149.2 281.6 148.5 283.1 148.5C284.4 148.5 285.4 148.8 286 149C286.1 149 286.2 149 286.3 149C286.4 149 286.4 148.9 286.4 148.8V143.8C286.6 143.6 286.6 143.5 286.4 143.4Z" fill="white"/>
<path d="M305.7 160.8C299.1 159.9 297.9 158.4 297.9 155.5C297.9 152.6 300.3 150.8 304.3 150.8C308.7 150.8 310.8 152.4 311.5 156.2C311.5 156.3 311.6 156.4 311.8 156.4H318.4C318.5 156.4 318.6 156.4 318.6 156.3C318.7 156.2 318.7 156.2 318.7 156.1C317.9 148.7 313 144.8 304.3 144.8C296.2 144.8 290.5 149.4 290.5 156C290.5 162.6 294.4 166.1 304.4 167.4C311.1 168.5 312.2 170 312.2 172.9C312.2 176.2 309.4 178.4 305.2 178.4C298.7 178.4 297.3 175.2 296.9 171.7C296.9 171.6 296.8 171.4 296.6 171.4H289.7C289.6 171.4 289.5 171.4 289.5 171.5C289.5 171.6 289.4 171.6 289.4 171.7C289.8 177.4 292.9 184.3 305.2 184.3C313.6 184.3 319.7 179.2 319.7 172.3C319.8 164.4 314.4 162 305.7 160.8Z" fill="white"/>
<path d="M347.6 158.4C345.2 156.2 341.9 155 338.1 155C329.6 155 323.7 161 323.7 169.6V170C323.7 178.6 329.6 184.4 338.3 184.4C345.8 184.4 350.7 181 351.6 175.1C351.6 175 351.6 174.9 351.5 174.9C351.4 174.8 351.4 174.8 351.3 174.8H345C344.9 174.8 344.7 174.9 344.7 175C344.2 177.7 342.1 179 338.5 179C334 179 331.3 176.3 331 171.4H351.4C351.6 171.4 351.7 171.3 351.7 171.1V169.2C351.7 164.6 350.3 160.9 347.6 158.4ZM331.2 166.6C331.9 162.6 334.4 160.3 338.1 160.3C342.1 160.3 344.3 162.4 344.6 166.6H331.2Z" fill="white"/>
<path d="M384.1 173.1C384 173 384 173 383.9 173H377.9C377.7 173 377.6 173.1 377.6 173.3C377.3 176.7 374.7 179 371.1 179C366.3 179 363.6 175.7 363.6 170.1V169.7C363.6 164.3 366.5 160.9 371 160.9C374.6 160.9 376.7 162.6 377.2 165.9C377.2 166 377.3 166.2 377.5 166.2H383.8C383.9 166.2 384 166.2 384 166.1C384.1 166 384.1 166 384.1 165.9C383.4 159.1 378.6 155.2 370.9 155.2C362.4 155.2 356.3 161.4 356.3 169.9V170.3C356.3 178.9 362.2 184.7 370.9 184.7C378.5 184.7 383.8 180.3 384.3 173.5C384.2 173.3 384.2 173.2 384.1 173.1Z" fill="white"/>
<defs>
<linearGradient id="paint0_linear_534_352" x1="259.999" y1="592.843" x2="259.999" y2="87.4315" gradientUnits="userSpaceOnUse">
<stop stop-color="#BB456A"/>
<stop offset="1" stop-color="#FF456A"/>
</linearGradient>
<linearGradient id="paint1_linear_534_352" x1="259.999" y1="589.881" x2="259.999" y2="152.533" gradientUnits="userSpaceOnUse">
<stop stop-color="#FF456A"/>
<stop offset="1" stop-color="#BB456A"/>
</linearGradient>
<linearGradient id="paint2_linear_534_352" x1="260" y1="185.698" x2="260" y2="464.576" gradientUnits="userSpaceOnUse">
<stop stop-color="#FF456A"/>
<stop offset="1" stop-color="#BB456A"/>
</linearGradient>
</defs>
</svg>
