<svg width="520" height="600" viewBox="0 0 520 600" fill="none" xmlns="http://www.w3.org/2000/svg">
<path d="M0 167.2V432.7C0 443.4 5.7 453.3 15 458.7L245 591.5C254.3 596.9 265.7 596.9 275 591.5L505 458.7C514.3 453.3 520 443.4 520 432.7V167.2C520 156.5 514.3 146.6 505 141.2L275 8.49995C265.7 3.09995 254.3 3.09995 245 8.49995L15 141.2C5.7 146.6 0 156.5 0 167.2Z" fill="url(#paint0_linear_534_563)"/>
<path d="M31 185.1V414.9C31 425.6 36.7 435.5 46 440.9L245 555.8C254.3 561.2 265.7 561.2 275 555.8L474 440.9C483.3 435.5 489 425.6 489 414.9V185.1C489 174.4 483.3 164.5 474 159.1L275 44.3C265.7 38.9 254.3 38.9 245 44.3L46 159.1C36.7 164.5 31 174.4 31 185.1Z" fill="url(#paint1_linear_534_563)"/>
<path d="M520 222.1H0V391.7H520V222.1Z" fill="url(#paint2_linear_534_563)"/>
<path d="M263.4 524.6H257C256.3 524.6 255.7 524 255.7 523.3V516.5C253.7 515 252.5 512.7 252.5 510.2C252.5 505.9 256 502.4 260.3 502.4C264.6 502.4 268.1 505.9 268.1 510.2C268.1 512.7 266.9 515.1 264.9 516.5V523.3C264.8 524 264.2 524.6 263.4 524.6ZM258.3 521.9H262.1V515.7C262.1 515.2 262.4 514.8 262.8 514.5C264.4 513.6 265.4 511.9 265.4 510.1C265.4 507.3 263.1 505 260.3 505C257.5 505 255.2 507.3 255.2 510.1C255.2 511.9 256.2 513.6 257.8 514.5C258.2 514.7 258.5 515.2 258.5 515.7V521.9H258.3Z" fill="white"/>
<path d="M288.8 443.1C287.7 443.1 286.7 442.8 285.7 442.3C282.7 440.6 281.7 436.7 283.4 433.7C285.1 430.7 289 429.7 292 431.4C295 433.1 296 437 294.3 440C293.1 441.9 291 443.1 288.8 443.1ZM288.9 433.2C287.7 433.2 286.4 433.8 285.8 435C285.3 435.8 285.2 436.8 285.4 437.7C285.6 438.6 286.2 439.4 287.1 439.9C288.8 440.9 291 440.3 292 438.6C293 436.9 292.4 434.7 290.7 433.7C290.1 433.4 289.5 433.2 288.9 433.2Z" fill="white"/>
<path d="M223.7 463.9C222.6 463.9 221.5 463.6 220.6 463.1C217.6 461.4 216.6 457.5 218.3 454.5C219.1 453.1 220.5 452 222.1 451.6C223.7 451.2 225.4 451.4 226.9 452.2C228.3 453 229.4 454.4 229.8 456C230.2 457.6 230 459.3 229.2 460.8C228.4 462.2 227 463.3 225.4 463.7C224.8 463.8 224.2 463.9 223.7 463.9ZM223.7 454C223.4 454 223.1 454 222.8 454.1C221.9 454.3 221.1 454.9 220.6 455.8C219.6 457.5 220.2 459.7 221.9 460.7C222.7 461.2 223.7 461.3 224.6 461.1C225.5 460.9 226.3 460.3 226.8 459.4C227.3 458.6 227.4 457.6 227.2 456.7C227 455.8 226.4 455 225.5 454.5C224.9 454.2 224.3 454 223.7 454Z" fill="white"/>
<path d="M260.4 539.6C259.3 539.6 258.3 539.3 257.3 538.8C254.3 537.1 253.3 533.2 255 530.2C256.7 527.2 260.6 526.2 263.6 527.9C266.6 529.6 267.6 533.5 265.9 536.5C264.7 538.5 262.6 539.6 260.4 539.6ZM260.4 529.7C259.2 529.7 257.9 530.3 257.3 531.5C256.3 533.2 256.9 535.4 258.6 536.4C260.3 537.4 262.5 536.8 263.5 535.1C264.5 533.4 263.9 531.2 262.2 530.2C261.6 529.9 261 529.7 260.4 529.7Z" fill="white"/>
<path d="M263.4 458C260.2 456.1 256.1 457.3 254.2 460.5C252.4 463.7 253.5 467.8 256.7 469.7C257.8 470.3 258.9 470.6 260 470.6C262.3 470.6 264.6 469.4 265.8 467.2C267.7 464 266.6 459.8 263.4 458Z" fill="white"/>
<path d="M260.4 494.9C270.6 494.9 279 503.2 279 513.5C279 512.8 279.6 512.2 280.3 512.2C281 512.2 281.6 512.8 281.6 513.5C281.6 501.8 272.1 492.3 260.4 492.3C248.7 492.3 239.2 501.8 239.2 513.5C239.2 523 245.5 531.1 254.2 533.8C254.1 532.9 254.3 532 254.6 531.1C247.2 528.7 241.9 521.7 241.9 513.5C241.8 503.2 250.2 494.9 260.4 494.9Z" fill="white"/>
<path d="M280.3 512.1C279.6 512.1 279 512.7 279 513.4C279 521.6 273.7 528.6 266.3 531C266.6 531.8 266.8 532.8 266.7 533.7C275.4 531 281.7 522.9 281.7 513.4C281.6 512.7 281 512.1 280.3 512.1Z" fill="white"/>
<path d="M305.4 482.6C295 471.7 281.4 465 266.7 463.4C266.8 464.3 266.6 465.2 266.3 466C280.5 467.5 293.5 473.9 303.5 484.4C304.7 485.7 305.4 487.3 305.3 489.1C305.3 490.9 304.5 492.5 303.3 493.7C302.8 494.2 302.7 495.1 303.3 495.6C303.6 495.9 303.9 496 304.3 496C304.6 496 305 495.9 305.2 495.6C307 493.9 308 491.6 308.1 489.1C308 486.7 307.1 484.4 305.4 482.6Z" fill="white"/>
<path d="M303.2 495.7C302.7 495.2 302.7 494.3 303.2 493.8C302 495 300.4 495.6 298.7 495.6C296.9 495.6 295.2 494.9 293.9 493.6C284.9 484.2 272.8 479 259.8 479C247.3 479 235.5 483.8 226.7 492.6C224.1 495.2 219.9 495.1 217.4 492.6C216.2 491.3 215.5 489.7 215.5 487.9C215.5 486.1 216.2 484.5 217.5 483.2C217.2 483.5 216.9 483.6 216.6 483.6C216.3 483.6 215.9 483.5 215.7 483.2C215.2 482.7 215.2 481.8 215.7 481.3C213.9 483 213 485.4 213 487.8C213 490.3 213.9 492.6 215.7 494.4C219.3 498 225.2 498.1 228.8 494.5C237.2 486.2 248.3 481.6 260.1 481.6C272.4 481.6 283.8 486.5 292.2 495.4C294 497.3 296.4 498.3 298.9 498.3C301.3 498.3 303.6 497.4 305.3 495.7C305 495.9 304.7 496.1 304.4 496.1C303.8 496.1 303.5 495.9 303.2 495.7Z" fill="white"/>
<path d="M253.3 463.4C239.1 464.9 225.9 471.1 215.6 481.3C215.1 481.8 215.1 482.7 215.6 483.2C215.9 483.5 216.2 483.6 216.5 483.6C216.8 483.6 217.2 483.5 217.4 483.2C227.3 473.4 240 467.4 253.6 466.1C253.4 465.2 253.3 464.3 253.3 463.4Z" fill="white"/>
<path d="M324 460.5C316 451.1 306.1 443.7 294.9 438.8C294.8 439.2 294.6 439.6 294.4 440C294.2 440.4 293.9 440.8 293.6 441.1C304.6 445.9 314.3 453.1 322.1 462.3C324.5 465.1 324.1 469.2 321.3 471.6C320.1 472.6 318.6 473.2 317 473.2C315.1 473.2 313.2 472.4 312 470.9C299.3 455.9 280.1 447.3 259.3 447.3C248.6 447.3 238.2 449.7 228.8 454C229.3 454.6 229.6 455.3 229.8 456.1C229.8 456.2 229.8 456.3 229.9 456.4C238.9 452.2 248.9 449.9 259.3 449.9C279.3 449.9 297.7 458.2 310 472.6C311.8 474.7 314.3 475.9 317.1 475.9C319.3 475.9 321.4 475.1 323.1 473.7C326.8 470.2 327.3 464.4 324 460.5Z" fill="white"/>
<path d="M218 460.1C214.4 462.7 211 465.7 208 469C205.5 471.7 201.4 471.9 198.7 469.4C196 466.9 195.8 462.8 198.3 460.1C213.5 443.5 235.7 433.9 259.2 433.9C267.3 433.9 275.2 435 282.6 437.1C282.5 436.2 282.7 435.3 283 434.4C275.4 432.3 267.3 431.1 259.1 431.1C234.8 431.1 211.9 441 196.2 458.2C192.8 462 193 467.8 196.8 471.3C200.6 474.7 206.4 474.5 209.9 470.7C212.8 467.5 216 464.7 219.5 462.2C218.9 461.7 218.3 461 218 460.1Z" fill="white"/>
<path d="M81.4 361C71.6 361 63 359.3 55.8 355.9C48.6 352.5 42.6 347.9 37.9 342.2C33.2 336.5 29.7 330.4 27.4 323.9C25.1 317.4 24 311.1 24 305V301.7C24 295 25.2 288.4 27.6 281.8C30 275.2 33.6 269.2 38.4 263.8C43.2 258.4 49.2 254.1 56.4 250.9C63.6 247.7 71.9 246.1 81.5 246.1C91 246.1 99.4 247.7 106.6 250.9C113.8 254.1 119.8 258.4 124.7 263.8C129.5 269.2 133.1 275.2 135.5 281.8C137.9 288.4 139.1 295.1 139.1 301.7V305C139.1 311.1 137.9 317.4 135.6 323.9C133.3 330.4 129.7 336.5 125 342.2C120.3 347.9 114.3 352.4 107.1 355.9C99.8 359.3 91.3 361 81.4 361ZM81.4 341.4C87 341.4 92 340.4 96.5 338.4C101 336.4 104.8 333.7 107.9 330.1C111 326.6 113.4 322.5 115.1 318C116.7 313.5 117.6 308.7 117.6 303.6C117.6 298.2 116.8 293.3 115.1 288.7C113.4 284.1 111 280.1 107.9 276.7C104.8 273.3 101 270.6 96.6 268.7C92.2 266.8 87.2 265.9 81.6 265.9C76.1 265.9 71.2 266.8 66.7 268.7C62.2 270.6 58.4 273.3 55.3 276.7C52.2 280.1 49.8 284.1 48.1 288.7C46.5 293.3 45.6 298.2 45.6 303.6C45.6 308.7 46.4 313.5 48.1 318C49.7 322.5 52.1 326.6 55.3 330.1C58.4 333.6 62.2 336.4 66.7 338.4C71 340.4 76 341.4 81.4 341.4Z" fill="white"/>
<path d="M196.3 361C186.8 361 178.6 359.5 172 356.4C165.3 353.3 160.3 349.1 156.9 343.6C153.5 338.2 151.8 332 151.8 325.2H172.5C172.5 328.1 173.3 330.9 174.9 333.6C176.5 336.3 179.1 338.5 182.6 340.2C186.1 341.9 190.7 342.7 196.4 342.7C201.7 342.7 206 342 209.5 340.5C213 339 215.5 337 217.3 334.6C219 332.2 219.9 329.4 219.9 326.3C219.9 322.5 218.3 319.5 215 317.1C211.7 314.8 206.6 313.3 199.6 312.7L190.1 311.8C179.7 310.9 171.3 307.6 165.1 302C158.9 296.4 155.8 288.9 155.8 279.7C155.8 272.7 157.4 266.7 160.7 261.7C164 256.7 168.6 252.8 174.5 250.1C180.4 247.4 187.4 246 195.3 246C203.6 246 210.7 247.4 216.7 250.3C222.7 253.2 227.3 257.2 230.6 262.5C233.8 267.7 235.4 273.9 235.4 280.9H214.7C214.7 278 214 275.3 212.6 272.8C211.2 270.3 209.1 268.2 206.2 266.6C203.3 265 199.7 264.2 195.3 264.2C191.1 264.2 187.7 264.9 184.9 266.4C182.2 267.8 180.1 269.7 178.7 272.1C177.3 274.4 176.6 277 176.6 279.8C176.6 283.2 177.8 286.1 180.3 288.7C182.8 291.2 186.7 292.7 192.1 293.1L201.5 294C209.4 294.6 216.2 296.2 222 298.9C227.8 301.6 232.4 305.2 235.7 309.8C239 314.4 240.6 319.9 240.6 326.4C240.6 333.3 238.8 339.3 235.2 344.5C231.6 349.7 226.5 353.8 219.9 356.7C213.2 359.6 205.4 361 196.3 361Z" fill="white"/>
<path d="M277.6 358.2L250 249.3H272L294.5 344L288.7 340.6H303.6L297 344L314.8 253.4H333L310.9 358.1H277.6V358.2ZM342.8 358.2L318.8 253.5H337.7L358.1 344.1L351.7 340.7H366.3L360.6 344.1L380.3 249.4H401.2L376.4 358.3H342.8V358.2Z" fill="white"/>
<path d="M418.3 358.2V248.6H439.5V358.3H418.3V358.2ZM436.5 324.8V306.4H457.7C461.9 306.4 465.4 305.6 468.4 303.9C471.3 302.2 473.6 299.9 475.2 296.9C476.8 293.9 477.6 290.5 477.6 286.8C477.6 282.8 476.8 279.3 475.2 276.4C473.6 273.4 471.3 271.1 468.4 269.5C465.5 267.9 461.9 267 457.7 267H436.5V248.6H455.9C465.1 248.6 472.8 250.1 479.2 253.1C485.6 256.1 490.5 260.3 493.9 265.9C497.3 271.4 499 278 499 285.7V288.1C499 295.6 497.3 302.1 493.9 307.6C490.5 313.2 485.6 317.4 479.2 320.4C472.8 323.4 465 324.9 455.9 324.9H436.5V324.8Z" fill="white"/>
<path fill-rule="evenodd" clip-rule="evenodd" d="M166.5 161.4C166.5 167.8 167 174.1 167.9 180.4L169.9 193.9C168.1 194.2 166.4 194.4 164.5 194.4C162.6 194.4 160.9 194.2 159.1 193.9L161.1 180.4C162 174.1 162.5 167.8 162.5 161.4V133C163.2 133 163.9 132.9 164.6 132.9C165.3 132.9 166 132.9 166.7 133V161.4H166.5ZM145.8 188.2L153.8 172.6C154.4 171.4 154.7 170.1 154.7 168.8V134.5C142.5 138.6 133.6 150.1 133.6 163.7C133.7 173.7 138.5 182.6 145.8 188.2ZM174.2 168.8C174.2 170.1 174.5 171.4 175.1 172.6L183.1 188.2C190.5 182.6 195.2 173.7 195.2 163.7C195.2 150.1 186.4 138.6 174.1 134.5V168.8H174.2Z" fill="white"/>
<path d="M385 153.7V153H388.4V153.7H385ZM386.3 157.4V153.5H387V157.4H386.3ZM389.1 157.4V153.1H389.8V157.4H389.1ZM391.2 157.4L389.3 153.1H390.1L391.4 156.3L392.7 153.1H393.5L391.6 157.4H391.2ZM392.9 157.4V153.1H393.6V157.4H392.9Z" fill="white"/>
<path d="M230.5 144.9C219 144.9 210.6 153.1 210.6 164.5V164.9C210.6 176.4 218.8 184.5 230.5 184.5C242.2 184.5 250.3 176.4 250.3 164.8V164.4C250.3 152.9 242.1 144.9 230.5 144.9ZM218.7 164.5C218.7 156.3 223.2 151.2 230.5 151.2C237.8 151.2 242.2 156.4 242.2 164.5V164.9C242.2 173 237.6 178.3 230.6 178.3C223.6 178.3 218.7 172.8 218.7 165V164.5Z" fill="white"/>
<path d="M286.4 143.4C285.1 143 284.1 142.9 282.5 142.9C276.3 142.9 272.7 146.4 272.7 152.6V155.7H261.9V152.3C261.9 149.2 263.8 148.5 265.3 148.5C266.5 148.5 267.5 148.8 268.1 149C268.2 149 268.3 149 268.4 149C268.5 148.9 268.5 148.9 268.5 148.8V143.8C268.5 143.7 268.4 143.6 268.3 143.5C267 143.1 266 143 264.5 143C258.2 143 254.7 146.4 254.7 152.7V183.8C254.7 184 254.8 184.1 255 184.1H261.5C261.7 184.1 261.8 184 261.8 183.8V161H272.6V183.6C272.6 183.8 272.7 183.9 272.9 183.9H279.4C279.6 183.9 279.7 183.8 279.7 183.6V161H285.8C286 161 286.1 160.9 286.1 160.7V155.9C286.1 155.7 286 155.6 285.8 155.6H279.7V152.3C279.7 149.2 281.6 148.5 283.1 148.5C284.4 148.5 285.4 148.8 286 149C286.1 149 286.2 149 286.3 149C286.4 149 286.4 148.9 286.4 148.8V143.8C286.6 143.6 286.6 143.5 286.4 143.4Z" fill="white"/>
<path d="M305.7 160.8C299.1 159.9 297.9 158.4 297.9 155.5C297.9 152.6 300.3 150.8 304.3 150.8C308.7 150.8 310.8 152.4 311.5 156.2C311.5 156.3 311.6 156.4 311.8 156.4H318.4C318.5 156.4 318.6 156.4 318.6 156.3C318.7 156.2 318.7 156.2 318.7 156.1C317.9 148.7 313 144.8 304.3 144.8C296.2 144.8 290.5 149.4 290.5 156C290.5 162.6 294.4 166.1 304.4 167.4C311.1 168.5 312.2 170 312.2 172.9C312.2 176.2 309.4 178.4 305.2 178.4C298.7 178.4 297.3 175.2 296.9 171.7C296.9 171.6 296.8 171.4 296.6 171.4H289.7C289.6 171.4 289.5 171.4 289.5 171.5C289.5 171.6 289.4 171.6 289.4 171.7C289.8 177.4 292.9 184.3 305.2 184.3C313.6 184.3 319.7 179.2 319.7 172.3C319.8 164.4 314.4 162 305.7 160.8Z" fill="white"/>
<path d="M347.6 158.4C345.2 156.2 341.9 155 338.1 155C329.6 155 323.7 161 323.7 169.6V170C323.7 178.6 329.6 184.4 338.3 184.4C345.8 184.4 350.7 181 351.6 175.1C351.6 175 351.6 174.9 351.5 174.9C351.4 174.8 351.4 174.8 351.3 174.8H345C344.9 174.8 344.7 174.9 344.7 175C344.2 177.7 342.1 179 338.5 179C334 179 331.3 176.3 331 171.4H351.4C351.6 171.4 351.7 171.3 351.7 171.1V169.2C351.7 164.6 350.3 160.9 347.6 158.4ZM331.2 166.6C331.9 162.6 334.4 160.3 338.1 160.3C342.1 160.3 344.3 162.4 344.6 166.6H331.2Z" fill="white"/>
<path d="M384.1 173.1C384 173 384 173 383.9 173H377.9C377.7 173 377.6 173.1 377.6 173.3C377.3 176.7 374.7 179 371.1 179C366.3 179 363.6 175.7 363.6 170.1V169.7C363.6 164.3 366.5 160.9 371 160.9C374.6 160.9 376.7 162.6 377.2 165.9C377.2 166 377.3 166.2 377.5 166.2H383.8C383.9 166.2 384 166.2 384 166.1C384.1 166 384.1 166 384.1 165.9C383.4 159.1 378.6 155.2 370.9 155.2C362.4 155.2 356.3 161.4 356.3 169.9V170.3C356.3 178.9 362.2 184.7 370.9 184.7C378.5 184.7 383.8 180.3 384.3 173.5C384.2 173.3 384.2 173.2 384.1 173.1Z" fill="white"/>
<defs>
<linearGradient id="paint0_linear_534_563" x1="259.999" y1="592.842" x2="259.999" y2="87.4314" gradientUnits="userSpaceOnUse">
<stop stop-color="#1B3861"/>
<stop offset="1" stop-color="#016DCE"/>
</linearGradient>
<linearGradient id="paint1_linear_534_563" x1="259.999" y1="673.499" x2="259.999" y2="236.15" gradientUnits="userSpaceOnUse">
<stop stop-color="#0070D4"/>
<stop offset="1" stop-color="#1B3861"/>
</linearGradient>
<linearGradient id="paint2_linear_534_563" x1="260" y1="185.698" x2="260" y2="464.576" gradientUnits="userSpaceOnUse">
<stop stop-color="#0070D4"/>
<stop offset="1" stop-color="#1B3861"/>
</linearGradient>
</defs>
</svg>
